<svg id="Layer_1" data-name="Layer 1" xmlns="http://www.w3.org/2000/svg" xmlns:xlink="http://www.w3.org/1999/xlink" viewBox="0 0 1080 1080"><defs><style>.cls-1{mix-blend-mode:multiply;}.cls-2{fill:#fff;}.cls-3{mask:url(#mask);}.cls-4{fill:#a66eff;}</style><mask id="mask" x="-214.81" y="-136.64" width="1494.88" height="1359.58" maskUnits="userSpaceOnUse"><g class="cls-1"><rect class="cls-2" x="-98.95" y="6.55" width="1263.16" height="1073.21" transform="translate(-120.79 153.6) rotate(-14.76)"/><path d="M710.73,986c-2.14-2.54-3.94-4.68-6.16-7.3l-2.94,5a7.34,7.34,0,0,1-2.44-.75c-.94-.87-1.39-2.32-2.46-2.89-6-3.17-5.67-.42-6.58,3.23-.17.7.17,1.49.39,3.1-15,10.24-14.19,7.81-12.66,19.69-5.15,2.73-12.47-.38-13.77,8.07-2.45-1.61-1.77.33-3.13-11.86l6.62,2.08c1.56-5.12,2.31-3.91-4.11-4.85-.73-3.69-1.5-7.54-2.35-11.83,7.49-1.36,15,4.2,22.63-1.58l-3.68-4.49c12.25-11.93,12.25-11.93,18-12.6-.15,2.84.11,1.56-1.4,5.08l9.69-2.55,5.39,5.79c1.84-.76,4.4-1.19,6-2.57,6.48-5.54,4.79-3.86,14.22-1.56,5-11.17,2.82-9.31,9.38-9.27-1.56,18.11-16.15,8.3-20.71,17.82C719,985.15,715.19,986.78,710.73,986Z"/><path d="M357.88,1042.08c9.13-6.41,15.11-12.7,22.56-7.91,6.89,4.44,7.33,8.9,1.54,15.27l-11.3.61c4.6,10.73,4.5,9,3,11.58-4.28,7.45-4.29,7.45,3.84,12,4.11-5.53,2.94-12.06,4.79-11.86,17.51,1.87,15.06,2.16,15.73,3.6-1.17,4.62-11.91,4.05-6.42,12.74-42-1.16-23.32,4-29.18-33.7C356.85,1042.28,357.47,1042.74,357.88,1042.08Z"/><path d="M556.13,1048.38c.81,2.56,1.63,5.11,2.47,7.77,14-1.71,17.38-3,10,2.31l11.51,6.37c-1.47,1.6-2.31,2.5-2.84,3.09,7.94,17.1,7,13.2,4,16.6.23,0,.31.43-5.82-9.82-3.3,1.62-3,6.63-7.2,5-3.47-1.38-4.28-4.21-3.83-7.75l6.59-2.54-7.22-4c-7.88,6.54-7.12,14.66-8.39,23.47l-6.08-3.66,2.88-5c-3.17-12.44-3.19-6.87-1.52-22.28-3.22-1.32-6.85,1.52-7.76-2.92,1-.55,2.18-1.71,3.28-1.7,2.92,0,4.84-.85,5.58-3.57C552.67,1046.3,557.33,1049.15,556.13,1048.38Z"/><path d="M664.12,1051.34c-1.19-6.22,2.33-4.87-17.7-10-1.35,3.35-.8,9-7.86,10.54.24-3.52.47-7,.77-11.44l9-4.75c-1.36-8.4-3.25-5.75,9.39-4.31-.87-2.74-1.48-4.69-2-6.41,4.28-4.1,14,5,12.4,7.65-1.24,2.07-5.11,2.87-3.65,6.27s4.72,2.5,7.71,2.45a55,55,0,0,1,6.38.58C679.42,1044.23,681,1041.22,664.12,1051.34Z"/><path d="M127.47,867.78l6.05-6.47c-6.36.75-10.74,0-12.45-5.93l8.83-6.08c2,5.05,2.6,7.31,3.83,7.14,3.22-.45,5.39.42,7.83,2.61,1.73,1.55,7.17.25,8.08,1.77,3.33,5.6,5.09,4.48,6.54,5.87,1,9.74-9.69,3.61-11.34,10.64C145,877.12,146.05,877.85,127.47,867.78Zm17.84-3.67c-3.11-.35-2.2-.52-3.22,1.53C145.12,866.31,144.43,866.74,145.31,864.11Z"/><path d="M26.62,655.42l8.35,6.9,6.92-3.12-.71,7.37,11.41,7c-1.6,2.74-3.43,4.68-7.14,3.13-15.22-6.37-12.88-4.61-25.4-2.77.86-2.54,1.57-4.62,2.49-7.31C10.71,667,10,668.23,26.62,655.42Z"/><path d="M292.34,889.68,298,884c.39,3.22.61,5,.87,7.23,3.76-.54,8.5-1.12,8.85,3.53.31,4.19-3.73,6-7,6.58,5.21,4.69,4.77,1.79,3.52,11L293.63,916c-.16-4.67-2.6-8.32.66-13.32C296.08,899.94,293.25,894.72,292.34,889.68Z"/><path d="M357.58,1042.56c-2.07.76-4.43,3.31-6-.21-1.06-2.42-3-2.87-5.22-2-2.43.92-4.43,2.34-3,5.32.33.67-.37,1.8-.78,3.5-9.73-4.43-4.62-3.32-8.6,2.81-.92,1.41-2.51,2.46-4.2,4-6.29-7.9,8-12,8.25-19.44,0-1.12,3.8-2.55,6-3.37,1.75-.64,3.83-.38,5.7-.82,6.81-1.58,7.33-1.27,7.73,5.19C357.87,1042.78,358.05,1041.82,357.58,1042.56Z"/><path d="M181,861.77c-6.44.9-6.44.9-8.36-6.82L168,857.82c4.91,5.79,4.47,4.66,3.46,6.47-14.44-3.45-10.24-1.91-14.84-7.34l3.88-8.32C174.43,847.7,174.43,847.7,181,861.77Z"/><path d="M170.71,886.45c4.06-5.67,4.06-5.67,8.95-6.18,1-3,1.93-5.85,3.27-9.92,4.93,8.79.51,16.28-.12,23.62-.37,4.21-5.51,3.81-9.55,4.35l6.06-10.55c-6-2-8.37,1.41-10.27,4.46l-11.33-1.58C159.3,885,159.3,885,170.71,886.45Z"/><path d="M296.65,694.72c2.12,8.06,1.41,7.27,2.83,5.07,3.33,2.46,6.65,4.92,10,7.42-6.39,4.41,2.67,3.35,2.19,5.73-4.6,4.86-11.46,3.64-14.84-3-6.34.08-3.86.06-9.85,0C291,705.19,289.35,698.75,296.65,694.72Z"/><path d="M722.65,962.15c-4.53,1.53-8.35,3.31-13.35.33-6.59-3.93-14.25-6.39-22.44-9.9l9-5.79C706.62,950.33,712,959.76,722.65,962.15Z"/><path d="M167.82,924.84l4.19,2.6c-4.52,3.88-12.39,4-11.28,11.35l-9.07,2c-1.84-2-5.06-4.94-4.79-5.23,3.63-4-1.36-10.36,5.6-13.67.4,2.16.78,4.19,1.34,7.22C154,929.05,170.1,925.62,167.82,924.84Z"/><path d="M384.58,763.77c-6.28,1-6.28,1-13.3,9.46-5.6-1.58-2.83-6.09-3.63-9.76l6.81-3.23c-2.79-2.16.1-2.13-10.93-.23-.47-7.68,0-8.08,6.24-6.38C372.5,754.37,380.64,752.18,384.58,763.77Z"/><path d="M318.09,1086.54l-10.83-22.66c5.33-3.61,5.12,2,7.92,3.1,3.7.51,7.06-3.68,9.32-.08,1,1.66-.27,4.66-.6,7-.53,3.83-4,7-3.5,11.11C320.45,1085.46,318.8,1086.11,318.09,1086.54Z"/><path d="M409.16,1026.63c-5.92-3-4.72-6.64-4-10.12l-5.7-4c.58-4.11,2.34-8-3.06-10.6-1.45-.7-.58-5.26-.91-9.79,8.6,5.68,8.74,14.11,12.63,20.44C428.2,1017.43,406.46,1011.2,409.16,1026.63Z"/><path d="M347.13,743.65c11.07-8.77,12.43-9,6.5-13.85-.85-.69-.73-2.38-1.23-4.28,7.38,2.29,16.83.73,15.88,12.27-6.68,2-13.07,5.83-20.07,8.12Z"/><path d="M547.17,857.75c6.6-.84,4.67,6.91,10.2,8.07-4.18,4-8.57,8-4.33,14-6.22,1.07-4.62,1.35-12.39-11.31C545.76,861.53,544.07,864,547.17,857.75Z"/><path d="M671.63,924.26c-4.89,2,.29,3.38-20.81-5.38,1.51-3.42,3.08-7,4.27-9.7l-7.73-7c6-2.1,6-2.1,13.79,5.51-3.29,3.75-2.3,2.56-3.74,4.9-.62,5.82,6.56.82,7.39,5.46C665.2,920.3,668.86,921.89,671.63,924.26Z"/><path d="M352.68,820.11l7.86,4.58c.79-2.9,1.45-5.3,2.1-7.71,3.46.69,2.4-1.12,5,11.6-6.68-.9-7,8.92-14.58,5.61C350.11,830.3,350.48,825.78,352.68,820.11Z"/><path d="M162.12,922.56c.13-1.74.3-4,.6-8,2.44-3.18,10.44-5.69,7.76-13.63,5.15-.26,5.75,3.11,7,5.06a52.05,52.05,0,0,1-2.58,6.65c-1.2,2.14-3.4,3.92-4.25,6.12s1.21,5.15-2.85,6.13C168,924.88,169.19,925.38,162.12,922.56Z"/><path d="M596.88,869.58l6.16-.79c3.08,5.86-3.75,6.74-5,10.5l-13.12-6.49c6.7-8.95,3.18-7.33,15.83-8C602.38,868.76,598.18,868.08,596.88,869.58Z"/><path d="M473.08,961.45c-3.09-.05-6.13-.93-10.28-1.63l3.58-9.36c5.84,2.43,10.63,5.11,16.27,2.13C481.52,952,489.86,961.67,473.08,961.45Z"/><path d="M303.72,652.75c2.41,4.9-1.17,10.17,7.12,11.2-3.32,1.68-4.54,2.81-5.66,2.78A113.22,113.22,0,0,1,287.73,665a20.5,20.5,0,0,0,9.56-7.64C298.56,655.51,301.17,654.5,303.72,652.75Z"/><path d="M552.37,723.58c-5.77,5.36-6.92,5.12-9.91-1.87-1.64-3.83-6.66-8.55-2.75-11.07,1-.67,3.89-.67,4.42,0C547.08,714.59,553.41,716.39,552.37,723.58Z"/><path d="M618,1024.62c9.44-3.75,13.49,2,18.6,7l-6.51,1,4.08,8.92C628.38,1041.39,630.56,1041.85,618,1024.62Z"/><path d="M465.12,941.25c-1.95,7.14-.53,4.71-8,8.58,1.38-8.13,2.46-14.42,3.6-21.11,3.66,2.63,8.85,2.87,8.51,8.07C472.7,938.49,473.38,937.51,465.12,941.25Z"/><path d="M507,667.54l12.24-1.4c-1.81,5.66-3.46,10.84-5.2,16.3l-8.5.18C510.66,670.45,510.53,673.76,507,667.54Z"/><path d="M184.38,1007.12l-3.22-8c4.07-11.12,17.87-2.55,12.27,2C190.85,1003.29,187.82,1004.92,184.38,1007.12Z"/><path d="M323.61,720.38c-1.05-2-2-3.93-3.35-6.48l6.11-1.93c-.43,3.4-2.55,6.6,3,7.25,3.45.42,6.58,2.55,9.58,3.81-4.07,2.89-8.58,5.25-14.07,1.5-1.37-.94-4-.36-6-.48C318.7,721.93,317.73,722.78,323.61,720.38Z"/><path d="M219.61,940.16c-6-6.93-6.26-13.15-1.32-20.5,1.19.88,3.55,2.52,3.5,2.59-4.29,5.47.52,8.78,3.46,13.11Z"/><path d="M388.07,977.46c-1.52,3.74-4,3.89-7.4,3.66-4.41-.3-6.14,1.56-4.84,5.55,1,3.1.58,4.11-3.23,4.52-.94-3.55-.92,0-.29-13C377.64,976.75,382.72,974.91,388.07,977.46Z"/><path d="M719.66,820.05c.83-1.45,1.4-2.43,2.24-3.91-1-.27-2.47-.23-2.86-.8-3.09-4.64,1.51-5.78,2-5.6,4.68,1.57,9.22,3.49,15.34,5.9Z"/><path d="M394.7,1039.28c-1-7.49,7.74-5.62,9.88-9.73l8.12,7.2a28.4,28.4,0,0,1-1.85,2.33c-4.75-2.58-9.34.21-14,.8A8.34,8.34,0,0,1,394.7,1039.28Z"/><path d="M325.68,857.05l12.92-9.64c1.32,3.86,3.43,7,0,10.19C335.48,860.64,332.57,860.5,325.68,857.05Z"/><path d="M228.84,1033.48c-3-4.71-5.11-8.16-7.84-12.54.83-1.8,2.42-3.84,6.11-1.91C232.63,1021.94,233.22,1024.75,228.84,1033.48Z"/><path d="M756.06,1029.93c-.41,2.07-.74,3.71-1.08,5.45-7.9,1.64-10.66-5.28-18.2-7.14C745,1025.89,750.11,1029,756.06,1029.93Z"/><path d="M465.88,926.28l-6.9-6.66c2.64-3,5.36-6,8.17-9.16,4.22,4.5,4.22,4.5-1.15,9C466.76,921.55,470.81,923.59,465.88,926.28Z"/><path d="M219.35,909.17c1.76-3.3,3.33-6.25,5.54-10.38,2.36,3.4,4.68,6.1,6.19,9.17.88,1.79-2.56,4.17-5,3.55C224,911,222,910.13,219.35,909.17Z"/><path d="M258,858.8c8.05-6,14.05-2.39,13.87,2.52,0,1.14-1.64,3.18-2.59,3.25C267.13,864.71,263.37,862.1,258,858.8Z"/><path d="M417,803.81l14.73-13.23c.61,2.32,1.87,4.43,1.46,6.29C431.63,803.78,426.19,802.72,417,803.81Z"/><path d="M338,704.68c7.46-.55,7.46-.55,10.91,7.81l-12.13,1.42C337.2,710.37,337.58,707.48,338,704.68Z"/><path d="M482.65,952.59c3.08-6.46-2.72-8.78-7.69-12.27,6.91-1.11,12.2-1.87,16.78,3.62C481.46,953.46,482.4,952.46,482.65,952.59Z"/><path d="M389,1018c-.06-3.44-.11-6.39-.18-9.75,7.82,0,7.19,7.09,11.69,9.85C395.79,1021.43,392.84,1017.84,389,1018Z"/><path d="M627.28,1004.56c-.74.83-1.6,2.5-3,3.2-2.41,1.22-8.54-.87-9.25-3C613.09,999,624.84,997.69,627.28,1004.56Z"/><path d="M430.5,924.47l-4,7.71c-4.8-5.57-2.37-4.88-11-2.21.7-2.58.59-4.69,1.58-5.36C421.21,921.77,425.62,922,430.5,924.47Z"/><path d="M389.18,991.45c.1-4.72.16-7.64.23-11.51l13.3,4.94Z"/><path d="M694.69,994.1c-1,5.75-1.78,10.07-2.6,14.69C681.6,1012.17,683.84,999.58,694.69,994.1Z"/><path d="M180.7,577.73c2.64-1,1-8.07,7.51-4.94-1.06,4.85-2.79,8.67-8.84,9.73-3.43.6-6.47,1.4-7.92-2.35C173.83,576.25,177.65,579.28,180.7,577.73Z"/><path d="M357,657.4a41.17,41.17,0,0,1-5.91.72c-.72,0-2.09-1.4-2-2,2.93-12.42,3.48-10,7.06-11.83C356.47,648.55,356.71,652.4,357,657.4Z"/><path d="M500.1,924c3.91-1.41,7.65-2.49,9.64-6.58,1.44-3,3.64-2.74,7.87-.68C506.44,927.36,504.65,928.16,500.1,924Z"/><path d="M554.48,904.54c-13.53,5.08-19.67-1.49-18.28-4.53C537.47,897.25,539,898.53,554.48,904.54Z"/><path d="M97.79,874.71c8.51-1.19,9.16-.11,6.28,10.49C97.79,883.74,98.79,878.76,97.79,874.71Z"/><path d="M142.23,900.63c1-7.2,2.83-7.71,14-3.64C156.92,902,154.66,901,142.23,900.63Z"/><path d="M1050.61,936.39c-7,2.43-10.16-.26-12.88-5.52C1046,926.22,1042.92,925.54,1050.61,936.39Z"/><path d="M276.39,935.58l-14.69,6.66c-.61-.43-1.36-.69-1.38-1-.28-5.77,6.75-5.12,9.22-8.76C270.65,930.83,272,931.53,276.39,935.58Z"/><path d="M354,852.31c-3.28-12.49-4.08-9.12,2.47-15.38,4.23,2-1.52,5.6,2,8.11C359.91,846.1,358.71,850.8,354,852.31Z"/><path d="M524.89,954.26l16.18-2.46c1,4.56-2.94,6.11-4.56,5.9C532.7,957.2,527.68,958.7,524.89,954.26Z"/><path d="M284.23,202.94c-1.71,6.45-4,8-11.81,8C273.61,205.14,276.11,203.45,284.23,202.94Z"/><path d="M134.34,523.49c10.2-.38,10.7-.27,18.08,3.73-.25,1.79.8.57-3.62,4.54-3.3-4.09-2-2.51-4.63-5.7C136.66,527.31,139.3,527.53,134.34,523.49Z"/><path d="M15.23,645.52c-4.23.6-8,1.16-9-3.21-.64-2.66,2.05-4.43,7.86-5.33C14.44,639.77,14.82,642.55,15.23,645.52Z"/><path d="M438.63,878.3l-10.85,3.92c-.35-2.82-.66-5.25-1-7.74C436.13,873.88,436.13,873.88,438.63,878.3Z"/><path d="M503.25,663.41c3.56-8.14,3.75-5.15-1.52-13.63,9.51-2.62,8.84,9.1,3.32,14.37Z"/><path d="M320.12,651.8c-4.81,0-8.19-3.53-8-7.82.11-2.39.11-2.39,5.17-2.93C318.22,644.59,319.15,648.13,320.12,651.8Z"/><path d="M726.22,843.53c3-3.57,3-3.57,9.09-4.54-.93,4.44-.93,4.44,2.69,8C731.9,850.72,730.3,844.54,726.22,843.53Z"/><path d="M21.31,650.72c5.66-5.09,9.39-10,13.44-3.81C24.89,655.93,22.06,649.26,21.31,650.72Z"/><path d="M339.71,743.46c-1.45-4.33-2.59-7.71-3.72-11.08,7.26-4.12,5.62,4.68,10.7,5.32Z"/><path d="M1007,935.28c2.83.4,6.26-2.81,8.46.91s-4.08,4-5,7.44C1005.13,935.71,1005.53,937.14,1007,935.28Z"/><path d="M128.68,891.71c3.84-2.7,6.45-6,11.16-3.81C136.35,894.68,135.16,895.16,128.68,891.71Z"/><path d="M499.5,1064.05c-7.82,1.51-5.85-2-4.52-13.77C500.83,1053.74,498.45,1059.08,499.5,1064.05Z"/><path d="M156.4,882.87a34,34,0,0,1-4,2.09c-1.9-1.42,2.71-5.84-7.55-7.74-.16.24-1,.39,14.25-4.07C161.94,875,154.48,878.2,156.4,882.87Z"/><path d="M620,1067.91c-3.62,4.78-4.2,8.06-10.6,6.14-.61-.19-4.2-4.41,3.46-5.7C616.15,1067.8,620.55,1068.24,620,1067.91Z"/><path d="M481.59,650.37c5.91-6.42,4.09-5.25,8.37-4.92.27,0-1.58,8.51-1.89,8.48C482.64,653.47,483.71,653.08,481.59,650.37Z"/><path d="M722.37,564.18c4-4.22.27-3.55,13.08-3.71-.21.75-.19,2.38-.84,2.69C731,564.84,727.35,566.94,722.37,564.18Z"/><path d="M725.23,1009.49c-.09-4.07-.13-6.16-.2-9.08C741.45,999.94,740.12,999.18,725.23,1009.49Z"/><path d="M1079.65,726.05l-5-8.38c2.51-2.1,5.34-2.78,9-.75C1082.49,719.67,1081.39,722.15,1079.65,726.05Z"/><path d="M140.67,906.59l6.63-4,4.73,7.56C137.55,909.37,139.66,910.36,140.67,906.59Z"/><path d="M577.79,872.62l-7.2-6.14,9.25-4C579.71,872.78,580.23,871.11,577.79,872.62Z"/><path d="M1076.52,766.81l12.51-10.5C1091,762.32,1087.44,765.56,1076.52,766.81Z"/><path d="M537.28,1076.8c5.48-.34,5.21,3,6.61,5-2.48,4-5.32,6.09-11.09,4.11C539.8,1081.15,539,1083.27,537.28,1076.8Z"/><path d="M625,688.62c4.26-5.41,5.27-10.16,12.64-1.49Z"/><path d="M1010.71,952.49c-.27,1.4-.07,3.11-.89,4.14-3,3.69-5.7,5.17-9.15,4.66C1009,950.08,1007.11,951.32,1010.71,952.49Z"/><path d="M471.5,921c4.67,3.16,3.13,2.28,5.93,3.5l-2.29,7.38C468.44,929.94,472.94,925.5,471.5,921Z"/><path d="M140.43,939.65c-6.09-7.85-5.88-5.5-1.94-10.55C143.58,931.55,144.39,934.71,140.43,939.65Z"/><path d="M1022.52,910.63c-2.37,1.82-4.35,4.22-5.35,3.94-4.22-1.17-3-4.45-1.84-8.12Z"/><path d="M284,584.31c-7.83,2.91-7.83,2.91-9.2-4.43C280.62,576.81,279.44,583.34,284,584.31Z"/><path d="M298.75,1030.26l12.31,1.18c-1.08,2.13-2.1,4.13-3.69,7.28Z"/><path d="M146.26,492.67c.57,6.55.57,6.55-5.25,9C139.78,497.57,141.85,495.13,146.26,492.67Z"/><path d="M73.79,621.1c-3.85,4,.57,9-5.73,10.9C65.91,625.55,66.05,625.22,73.79,621.1Z"/><path d="M132.62,927.67l-8.31-.91c.91-4.59-.6-3.26,4.73-6Z"/><path d="M142.75,848l-4.13-8c6.28.87,4-.3,9.45,3.72Z"/><path d="M496.84,1011.1c3.22-2.11,4.73-3.67,6.53-4.13,4.5-1.18,6.55,4.37.27,5.64C502.25,1012.9,500.64,1012,496.84,1011.1Z"/><path d="M16.45,657c-1-5.54.63-9.11,3.77-12.61C21.58,652.3,22.55,649.05,16.45,657Z"/><path d="M152.45,885c.09,2.71.44,5.54-4.55,7.2-.25-3.09-.47-5.75-.76-9.4C152.68,884.71,151.39,884.17,152.45,885Z"/><path d="M347.33,956.3c-8.39,1.18-8.39,1.18-9.21-5C342.81,950.07,344.82,952.78,347.33,956.3Z"/><path d="M608.69,870.71c5-3.76,5.93-3.27,8.91,3.94C612.55,877.41,611.84,872.35,608.69,870.71Z"/><path d="M887.86,910.53c-3.22,6-.9,5-11.1,4.3-.16-1.35-1.57-.39,9.94-5.35Z"/><path d="M1070,781.22c6.7-7.82,4.42-6,8.84-6.35C1078.75,779.83,1081.14,778.28,1070,781.22Z"/><path d="M67.92,829.64c1.56-9.94.82-10.14,7.15-.14Z"/><path d="M962.65,862.54c0,3.78-.34,6.44-4.41,6-1.11-.12-3-1.29-2.9-1.92C955.71,862.54,959.21,863.21,962.65,862.54Z"/><path d="M71.36,1056.53c-5.67.12-7.23-1.92-6.68-6.35C69.12,1050.36,71.45,1051.79,71.36,1056.53Z"/><path d="M161.56,540c-.19,2.19-.31,3.58-.47,5.35C148.6,542.63,150.15,543,161.56,540Z"/><path d="M68.1,650.25c-1.5-3.93-3.56-1.66-6.87.57,3.65-11.21,2.85-10.32,8.64-1.75Z"/><path d="M102.42,894.76c1.62,1,.74-.47,3.41,5.06-1.13.71-2.35,2-3.28,1.91C97.74,901.13,97.39,895.16,102.42,894.76Z"/><path d="M742.29,841.3l5.69-7.23C754,839.2,747.11,844.45,742.29,841.3Z"/><path d="M890.5,917.19c2.82-4.85,2.82-4.85,7.87-3.39C894.79,918.83,894.79,918.83,890.5,917.19Z"/><path d="M379.25,788.75l9.94-.74C385.15,794.21,384.1,794.38,379.25,788.75Z"/><path d="M258.17,754.59l-6.86,2.94c-.08-2-.76-3.81-.06-4.61C253.62,750.19,255.77,751.16,258.17,754.59Z"/><path d="M1031.61,924.53c2.94-3.81,1.05-4,7-1.32C1036.11,927.79,1037.63,927.31,1031.61,924.53Z"/><path d="M72.41,817.17c-3.8-2.81-5.46-4.63-2.76-8.1C73.09,810.55,72.44,813.11,72.41,817.17Z"/><path d="M382.42,776c.79,3,2.13,3.82-1.15,7.64-.19.22-2.52-.44-2.6-.92C378,778.63,380.82,777.41,382.42,776Z"/><path d="M187.87,523.32l-9.65-.2C182.7,518,182.7,518,187.87,523.32Z"/><path d="M708,1008c-5.85,3-5.85,3-7.89-2C703.18,1004.36,705.59,1004.82,708,1008Z"/><path d="M596.74,1005.05c4-2.78,4-2.78,7.31,3C602.51,1010.42,604.06,1010.93,596.74,1005.05Z"/><path d="M219.3,83.71c3.71-2.78,7-2.77,10.14-.87C228.82,85.76,230.75,85.3,219.3,83.71Z"/><path d="M674.31,934.86c3.91-6.73,3.91-6.73,9.44-2.48Z"/><path d="M556.31,1048.5c-2-3.93,2.17-6.32,9.1-.69C560.59,1050.6,555.07,1047.7,556.31,1048.5Z"/><path d="M519.54,1011.55c-2,1.79-3.08,3.13-4.48,3.78-.56.26-2.79-1.15-2.69-1.53C513.86,1007.72,515.35,1010,519.54,1011.55Z"/><path d="M590.34,834.93l8.19,1.77C592.88,840.8,592.88,840.8,590.34,834.93Z"/><path d="M730.8,834.62c-6.77,1.37-6.95,1.17-5-5.66Z"/><path d="M620.16,1068c-2.31-4.86,4.75-6,9.68-4.19C618.9,1068.37,619.92,1067.87,620.16,1068Z"/><path d="M439.79,911.76c-6.7.67-7.7-1.87-7.35-5.48C435.25,904.46,433.61,903.6,439.79,911.76Z"/><path d="M142.42,552.28c-7.6,8.86-6.06,7.87-8.2,7.16C136.6,553.5,136.9,549.77,142.42,552.28Z"/><path d="M402,1062.31c-2.26-5.55-2.26-5.55,3.36-8.7C404.09,1057,403.06,1059.65,402,1062.31Z"/><path d="M41.7,657.24c-4.53-2.18-3.16-5.08-1.77-8.82C43.43,652.26,43.43,652.26,41.7,657.24Z"/><path d="M541,739c-10.27,5.83-8.58,5.58-9.94,3.46,1.83-3.45,6.22-2.93,9.08-4.79Z"/><path d="M642.7,892.3c5.23-5.48,8.21.56,5.39,2.22S643.68,894.72,642.7,892.3Z"/><path d="M686.42,728.69c2.49-2,5-4,7.78.3C685.49,730.53,687,730.83,686.42,728.69Z"/><path d="M1050.59,946.85c.06,5-3.44,5.41-7.35,7.3C1044.51,950,1046.05,947.87,1050.59,946.85Z"/><path d="M367.38,997.07c-3-2.51-3-2.51-2.21-7.67C368.48,992.9,368.48,992.9,367.38,997.07Z"/><path d="M515,1060.86c-5,3.1-5,3.1-9.38-.18C506.64,1058.75,505.09,1059,515,1060.86Z"/><path d="M469.27,936.79c6.83-4,7.11-4.08,11.62-1C470.21,938.61,472.69,938.49,469.27,936.79Z"/><path d="M1079.17,905.1l6.93-4.62C1086.2,905.13,1086.2,905.13,1079.17,905.1Z"/><path d="M623.45,994.8l-8.59-2c.47-1.1.58-2.39,1.25-2.77C620.42,987.6,621,991,623.45,994.8Z"/><path d="M138.82,510.39c-3.18-1.65-3.3-.18-.21-6.18C142.2,505.51,142,504.21,138.82,510.39Z"/><path d="M542.82,796.13c5.44,4.82,5.92,2.68.89,8.18C541.53,803.38,541.87,804.73,542.82,796.13Z"/><path d="M839.9,960.64c-3.66-3.5-3.66-3.5,3.2-7.15Z"/><path d="M531.1,732.47c1.39.14,1.76.08,1.84.2,1.22,1.81,2.78,3.71.18,5.65-.54.4-2.74-.15-2.73-.24C530.5,736.2,530.82,734.33,531.1,732.47Z"/><path d="M575.48,887.9c-1.93-5.15.4-7,3.1-8.73C581.58,880.72,581.83,879,575.48,887.9Z"/><path d="M178,492.83l-6.15,5.82C171.33,494.47,171.33,494.47,178,492.83Z"/><path d="M652.12,863c2,4.85,2,4.85-2.84,6.54C650.3,867.15,651,865.46,652.12,863Z"/><path d="M42.41,600.06c-1,4.9-3,5.58-5.68,4.66-.51-.18-.77-2.4-.55-2.51A58.82,58.82,0,0,1,42.41,600.06Z"/><path d="M121.26,925.87c-3.67-1.69-5.45-3.42-4.16-7.43C121.33,919.54,121.88,921.92,121.26,925.87Z"/><path d="M667.24,887.87c-1.66,1.67-2.7,3-4.08,3.85-.31.2-2.69-1.5-2.55-1.89a9.71,9.71,0,0,1,2.76-3.82C663.66,885.76,665.34,886.93,667.24,887.87Z"/><path d="M719.25,1042.91c-5.66,2-5.66,2-5.19-6C716.26,1039.47,717.66,1041.07,719.25,1042.91Z"/><path d="M115.56,873l4.79-5.75c.73,2.81,1.26,4.79,2,7.47Z"/><path d="M518.44,949.58l6.36-4.16C524.74,951.5,524.74,951.5,518.44,949.58Z"/><path d="M261.36,691.65c4.74,1.42,2.83,4.69,4.26,7.32C260.59,697.61,260.59,697.61,261.36,691.65Z"/><path d="M222.84,717.12c-1.92,1.43-3.93,4.73-6.88.36-.25-.37,1.06-2.3,1.95-2.56S219.92,715.74,222.84,717.12Z"/><path d="M168.25,806.49c-3,3.37-1.2,3.31-6.49,1.25C163.65,804.85,161.85,805,168.25,806.49Z"/><path d="M688.22,924.51c4.95,3.68,5.23,1.88,1,6.78C686.77,930,687.1,931.42,688.22,924.51Z"/><path d="M116,865.8c-1.5,4-4.69,5.36-10,5.53C109.83,865.08,118.12,867,116,865.8Z"/><path d="M424.12,686.23l-1.58-6c1.71.6,3.56.72,3.95,1.5C427.41,683.57,427.59,685.72,424.12,686.23Z"/><path d="M685,1007c-1.13,1.38.09.65-4.16,2.84-.41-.79-1.34-1.73-1.1-2.33,1.68-4.32,4.19-1.78,5.52-1.17Z"/><path d="M643.66,1059.85c-.91,4.73-4,5.26-6.48,6.49C635.59,1064.36,634.6,1065.76,643.66,1059.85Z"/><path d="M395.53,700.51c-5.39,1.29-5.39,1.29-8.43-2C392.54,696.15,395.06,701.18,395.53,700.51Z"/><path d="M38.38,596.5c-2.61,3.89-5.14,3.23-7.64.33Z"/><path d="M395.45,700.63l8.12-.69c-4.13,5.16-4.45,5.17-8,.57Z"/><path d="M597.11,593.16c-3.81-2.24-3-1.27-1.94-4.43C599.78,590.83,599.51,589.79,597.11,593.16Z"/><path d="M429.87,920l8-3.54C436.75,921.42,435,922.77,429.87,920Z"/><path d="M451.26,812.29c3.35-8.88,2.07-7.93,4-3.31C456.44,811.74,455,812.42,451.26,812.29Z"/><path d="M376,645.29c4.55-1.9,4.55-1.9,5.59,2.92Z"/><path d="M323.08,889.46l3.24-5.28c1,1.41,2,2.13,1.92,2.85C328.13,889.49,327.54,891.79,323.08,889.46Z"/><path d="M-.29,613.8c-.74-1.34-2.47-3.07-2-4,1.1-2.25,3.31-2.13,6-.09C-1,614.22-.59,613.71-.29,613.8Z"/><path d="M166.76,571.89l-6.91-1.16C162.8,567.6,162.8,567.6,166.76,571.89Z"/><path d="M261.75,550.35c3.63,2.4,3.49.91,2,5.27C260.58,554.28,260.88,555.76,261.75,550.35Z"/><path d="M424.63,1074.35c-2.93-2.89-2.24-4.59-.3-6,.36-.26,2.05.41,2,.46C426,1070.39,425.41,1072,424.63,1074.35Z"/><path d="M1067.46,787.53c.09,3,.89,1.67-2.25,5.3-1.92-.71-1.83.46,0-5.64Z"/><path d="M323.4,869.77c2.61,4.07,2.61,4.07-.7,8.15C323,874.85,323.18,872.31,323.4,869.77Z"/><path d="M366.33,815.33c-5.68-2.87-1.41-4.53-.84-6.38C367.75,809.11,367.45,807.91,366.33,815.33Z"/><path d="M198.65,949.54l-6.13,3.14C192.24,947.76,192.24,947.76,198.65,949.54Z"/><path d="M140.67,906.59c-1,3.67.36,2.85-6.48,3.16C136,905.9,138.08,905.62,140.67,906.59Z"/><path d="M449.57,916.39c5.68,2,3,4.9,3,7.18C450.2,923.72,451,925,449.57,916.39Z"/><path d="M419.82,697.53l-5.11-2.18C419.09,692.89,419.09,692.89,419.82,697.53Z"/><path d="M292.83,693.43c-6.61,2.24-5.33,2.51-6.37,0C293.1,690.65,291.78,690.52,292.83,693.43Z"/><path d="M251.94,591.13c-1.26-1-2.52-1.93-4-3C251.24,587.44,251.24,587.44,251.94,591.13Z"/><path d="M108.52,493.44c-3.67-1.09-3.91-2.89-1.52-5.68C110.31,489,110.48,490.82,108.52,493.44Z"/><path d="M162.76,506c7.43-2.32,6.08-2.37,7-.77-3,2.3-1.33,1.83-6.42,2.48Z"/><path d="M185.62,583.94l-4.53,2.86C180.67,583.5,180.67,583.5,185.62,583.94Z"/><path d="M629.87,809.48c7.08-.2,6-.82,5.94,1.84C628.69,811.41,629.8,812,629.87,809.48Z"/><path d="M615.47,824.66c0,4.09-1.58,5.31-6.07,4.82C613.06,825.55,611.49,826.88,615.47,824.66Z"/><path d="M546.74,887.66c.55-1.36,1.08-2.73,1.72-4a3.92,3.92,0,0,1,1.42.22c-.09,1.41-.3,2.82-.48,4.24Z"/><path d="M731.27,854.38c-7.27.59-6,1-6.28-1.63C732,851.68,730.71,851.21,731.27,854.38Z"/><path d="M952.87,836.89c5-2.15,6.4-1.35,6.14,2.7Z"/><path d="M882.73,891.11c5.63,5.53,5,3.86,2.54,6.64C880.88,894.36,881.92,896,882.73,891.11Z"/><path d="M635.32,1004.61l-5.45-2.71c.6-.77,1-2,1.82-2.24C634.63,998.66,635.6,1000.12,635.32,1004.61Z"/><path d="M125.57,839.18l-4.77,4.7C120.23,839.82,120.23,839.82,125.57,839.18Z"/><path d="M577.84,703.18c7.7-2,6.41-2.1,6.81-.52C577.18,704.63,578.48,704.71,577.84,703.18Z"/><path d="M1022.62,961.63c.42,4.11-1.17,4.94-5.65,5Z"/><path d="M48.92,656.8l6.83-3.27C53.83,657.16,52.86,658.58,48.92,656.8Z"/><path d="M379.92,1051.9c3.94,2.87,3.94,2.87.55,5.63C380.3,1055.84,380.17,1054.51,379.92,1051.9Z"/><path d="M116.13,865.89c.18-4.46.18-4.46,6.42-2.43C115.15,866.09,115.88,865.75,116.13,865.89Z"/><path d="M37.62,558c-.25,4-2.36,4-6.5,3.58C35.35,557.56,33.63,558.55,37.62,558Z"/><path d="M716,1019c2.91-.77,4.52-1.24,6.16-1.53C723.35,1017.3,723.52,1024.2,716,1019Z"/><path d="M90.14,220.74l7-2.65C96.33,221.76,94.87,222.59,90.14,220.74Z"/><path d="M442.18,956.92l-4.33,3.21C437.59,956.49,437.59,956.49,442.18,956.92Z"/><path d="M166.79,520.77c-2.35-3.37-2.17-2.64-1.54-4,4.67,1.76,4.52.81,1.39,4Z"/><path d="M259.61,580.61c5.58,3.7,5,2.74,3.93,4.3C257.35,582.24,258.07,583.23,259.61,580.61Z"/><path d="M532.47,909.79l4.19-2.75C537,911.35,537,911.35,532.47,909.79Z"/><path d="M479.47,919.25l8.12.65C483.8,923.12,481.9,923.69,479.47,919.25Z"/><path d="M71,639.75c-5.41-2.43-4.8-1.56-3.92-3.57C73,637.55,72.3,636.69,71,639.75Z"/><path d="M259.43,685.43c-4.69,3.74-3.55,3.63-5.24,1.8C258.94,683.41,257.81,683.69,259.43,685.43Z"/><path d="M955.5,898.15c-3.12,3.63-4,1.09-6.86-1.21Z"/><path d="M224.18,917.82c-3.43-3.27-3-2.45-1.84-3.77C226.2,916.9,225.91,916.07,224.18,917.82Z"/><path d="M526,1014.38c-5.44,3.2-3.81,2.89-6.06.63C523.06,1012.43,521.6,1012.91,526,1014.38Z"/><path d="M892.55,847.52c-3.57,3-2.14,2.88-5.57,1.44C889.5,846.19,888.21,846.81,892.55,847.52Z"/><path d="M419.74,969.21c-6.54,1.07-5.44,1.31-5.7-.43C420.53,967.82,419.45,967.57,419.74,969.21Z"/><path d="M558.49,756.76c-5.48,1.45-4.48,1.58-5.12.16C558.59,754.27,557.51,754.19,558.49,756.76Z"/><path d="M1045.63,920.65c1.36,4.68,1.36,4.68-1,7.33C1043.4,927.37,1043.36,928.57,1045.63,920.65Z"/><path d="M671.9,894.74c-4.57,3.23-3.17,2.75-5.28,1.55C669.07,893.38,667.81,894.07,671.9,894.74Z"/><path d="M418,955.41l5.9,2.54C420.5,960.09,419,959.46,418,955.41Z"/><path d="M17.5,1035.12c-2.83,3.33-1.46,3.17-5.18,2C14.1,1034.24,12.77,1034.77,17.5,1035.12Z"/><path d="M13.81,931.74c3.9,2.44,3.49,1.29,1.95,4.29C13.45,934.91,13.88,936.06,13.81,931.74Z"/><path d="M768.49,785.22,767.18,788a7.23,7.23,0,0,1-2-1.42c-.16-.23.54-1.39,1.06-1.6S767.68,785.12,768.49,785.22Z"/><path d="M548.4,839.12a21,21,0,0,1,3.24,2.24c.18.18-.6,1.65-.86,1.64C546.16,842.8,547.58,841.92,548.4,839.12Z"/><path d="M510,1071.14c2-1.48,1.06-2,4.48,1.54C512.51,1074.19,513.5,1074.43,510,1071.14Z"/><path d="M267.91,505.56c-2.82-1.85-2.76-.79-1-3.8C268.44,502.49,268.22,501.44,267.91,505.56Z"/><path d="M542.76,1070.94c.23-1.65.47-3.3.85-5.89C547.5,1068.08,545.3,1069.52,542.76,1070.94Z"/><path d="M264.79,498.38c4.92-3,3.85-2.86,5-1C264.77,500,265.8,500,264.79,498.38Z"/><path d="M155,505.1c5-2.27,4.05-2.31,4.8-.6C154.56,506.27,155.49,506.3,155,505.1Z"/><path d="M739.79,564.27l2.22.91a9.51,9.51,0,0,1-1.85,1.94c-.25.15-1.57-.57-1.61-1S739.27,565,739.79,564.27Z"/><path d="M257,680.13c-4.63-.2-3.81.07-3.72-1.58C258,678.76,257.21,678.36,257,680.13Z"/><path d="M270.36,664.32c2.25-1.93,2.87-2.67,3.67-3,.25-.11,1.54,1.05,1.43,1.26C274.16,665.17,272.57,664.39,270.36,664.32Z"/><path d="M207.3,132.92a14.27,14.27,0,0,1-2.9,1.64c-.3.08-1.29-.95-1.18-1.2C204.31,130.87,206,132.37,207.3,132.92Z"/><path d="M219.29,100.52l5.17-1c-1,3.67-3.15,2.84-5,2.61C218.4,102,219.05,101.13,219.29,100.52Z"/><path d="M194.51,88c.39,2.41,1.26,3.41-2.15,4.14C193.18,87.22,192.58,88,194.51,88Z"/><path d="M196.38,78.16c3.49-1.82,2.71-1.94,3.64.12C196.25,79.47,197,79.56,196.38,78.16Z"/><path d="M292.53,1061c4,1.12,3.47.56,3.07,2.14C291.14,1062.67,291.73,1063.2,292.53,1061Z"/><path d="M612.39,1022.59c-2.26-1.46-2.34-.54-.58-3.33C613.77,1020.8,613.6,1019.93,612.39,1022.59Z"/><path d="M368.19,801.36c-3.21,1-2.25,1.22-3.72-.79C367.2,799.33,366.22,799.39,368.19,801.36Z"/><path d="M985.59,867.38l-3.41.23a8.14,8.14,0,0,1,.12-1.35C986.37,865.87,985.68,866.1,985.59,867.38Z"/><path d="M883,884.43c2.46,2,2.53.93.5,3.81C881.5,887,881.45,888,883,884.43Z"/><path d="M447.36,844.78c-.8,3.58-.29,3-2.09,2.73C446.21,844,445.72,844.5,447.36,844.78Z"/><path d="M842.34,734.11c1.44,1.62,3.2,2.11.23,4.4-.25.19-1.81-.49-1.78-.68A19.4,19.4,0,0,1,842.34,734.11Z"/><path d="M109.75,1077.45c-.09-4.27-.56-3.6,1.4-3.64C111,1078.14,111.31,1077.4,109.75,1077.45Z"/><path d="M140.82,832.19c-2.8,1.95-1.65,2-4.43.83C137.59,831,136.38,831.13,140.82,832.19Z"/><path d="M349.3,640.32c-1.92,2.3-1.16,1.83-3.26,1.08C348.33,639.31,347.47,639.75,349.3,640.32Z"/><path d="M401.54,689.17c1.17,1.21,1.42.51-.17,2.67C399.81,690.32,399.7,690.94,401.54,689.17Z"/><path d="M448,688.77a4.08,4.08,0,0,1-1.17-.61c.41-1.14.94-2.25,1.43-3.37C450.49,685.77,450.82,685.1,448,688.77Z"/><path d="M169,815.47c-4.55.75-3.73,1.11-4-1.28C169.64,814.16,168.87,813.77,169,815.47Z"/><path d="M70.07,696.63c-.65,1.8,0,1.65-2.5,1C68.08,696.14,67.37,696.34,70.07,696.63Z"/><path d="M598,819.33c-1.9-.63-1.64.07-1.27-2.44C598.26,817.38,598.09,816.63,598,819.33Z"/><path d="M625.51,789.88c2.27,3.4,1.82,2.27,1,4.42C623.71,793.44,622.28,793.75,625.51,789.88Z"/><path d="M142.39,518.9c1.22.26,2.46.49,3.64.84.12,0-.1,1.27-.13,1.27C141.08,521,141.84,521.17,142.39,518.9Z"/><path d="M1078.33,695.23c1.66-1.82.67-2,3.75-.49C1080.24,697.41,1081.08,697.18,1078.33,695.23Z"/><path d="M55.64,433c4.69,1.08,4.1.49,3.57,2.21C54.4,434.12,55.09,434.64,55.64,433Z"/><path d="M350.88,665.52c-1.26-.42-2.51-.66-2.49-.84a6.18,6.18,0,0,1,.93-2.59c.1-.15,1.85.16,1.92.47A9.66,9.66,0,0,1,350.88,665.52Z"/><path d="M625.21,833.38c3.72,1.78,3.14,1,2,3.28C623.68,834.52,624,835.26,625.21,833.38Z"/><path d="M355.07,1069.18c-.49-1.09-1-2.19-1.45-3.29.47-.17,1.32-.52,1.34-.49C356.9,1069.34,356.56,1068.69,355.07,1069.18Z"/><path d="M585.12,849.53c-4,2.83-3.16,2.69-4.21,1.36C585,848.06,584.07,848.21,585.12,849.53Z"/><path d="M641.78,845.84c2.76,1.58,2.3.85,1.31,3.08C640.07,847.68,640.3,848.42,641.78,845.84Z"/><path d="M172,476.68c1.33,1.84,1.94,1-2.17,3.79C168.37,478.63,168,479.48,172,476.68Z"/><path d="M282.08,445.77c4.29,1.05,3.66.56,3.24,2.09C281.15,447.31,281.79,447.83,282.08,445.77Z"/><path d="M159.15,873.15c6.45-4.31,5.11-4.07,6.42-2.1C159.05,874,160.17,873.81,159.15,873.15Z"/><path d="M1063.12,775.41c-.52,3.81.08,3.24-2.41,2.93C1062,774.51,1061.36,775,1063.12,775.41Z"/><path d="M166.64,520.7c1.89,4.3,2.93,3.72-4,2.24,0-1.43-.78-.88,4.13-2.17Z"/><path d="M543.36,926.62c3,2.26,3,1.39.71,3.75C541.25,928,541.61,929,543.36,926.62Z"/><path d="M128.8,705.48c-1.64,3.65-1.07,3.13-2.36,2.88C127.24,704.49,126.67,705.05,128.8,705.48Z"/><path d="M184.44,472c2.46,1.57,2.19.77,1.16,3C183.31,474,183.72,474.64,184.44,472Z"/></g><g class="cls-1"><rect class="cls-2" x="-134.25" y="11.12" width="1263.16" height="796.12" transform="translate(-87.83 140.19) rotate(-14.76)"/><path d="M311.12,849.67c-3.68-1.47-6.19-3.62-5-8.48,3.7,1.87,6.81,3.66,6.6,8Z"/><path d="M935.24,681.28c5.93-2.7,5.93-2.7,9,1.61C938.39,684.43,940.4,684.86,935.24,681.28Z"/><path d="M999,663.48c4.25-.6,4.85,1.31,5,3.67C1002,667.69,1002.88,668.2,999,663.48Z"/><path d="M947.52,250.38c6.5.4,5.24,5.23,7.25,7.24,3.27,3.28,1.84,6.24,1.18,9.58l5.74,2.78c5-4.55,9.29-10.46,17.48-9.91.47-3.3.86-6,1.21-8.53l10-4c-.85,8.72-4,9.55,3.53,11.32,4.44,1,4.23,3.71,3,7.43l-11.36.17c-6.17,3.69-2.85,10.3-5.91,15.43-3.35-1.28-6.06-3.76-9.93-1.5-1.18.68-4.58.23-5-.64-4-7.64-10.06,1.8-17.79-4.58-2.67-2.2-7.07-2.64-11.32-4-.94-3,1.64-5.53,4.26-7.06,3.08-1.8,3.76-3.9,4.28-6.84C944.56,254.86,946.34,252.66,947.52,250.38Zm33.72,16.38c-3-.27-5-1.06-6.11-.43-3.43,2.05-2.74,4.9-1.43,8.14Z"/><path d="M686.19,221.74c-.32-1.22-.64-2.45-1-3.67-7.31,1.67-7.31,1.67-9.77,9.22l-10.58,3.84c.35-2,.16-4.16,1.08-5.75,4.74-8.18,4-11.06-4.42-14.26,21.07-12.34,28.92,9.17,22-4l6-2c1.68,3.74,3.19,7.08,4.69,10.43,7.33-4,10.7-3.28,16.59,3.6-5.4,6.93-9.1,15.5-19.87,17.45-2.17.39-4.36,1.52-5.78-1.78,3.11-.69,4.78-4.79,9.11-2.62.54.28,3.13-1.4,3.39-2.43s-1.19-2.84-2.31-3.13c-1.76-.47-3.91.06-13,1.7-1.08-4.27,1.07-5.69,3.86-6.74l4.58,2.1c.57-2.29,1-3.92,1.64-6.61Z"/><path d="M863.68,370c-.16-1.53-.28-2.71-.49-4.82l10.82,1c-1.77,4.84-3.16,8.64-4.76,13,5.26,3,4.36,8,3.25,14-4.13-4.13-1.79-4-9.62,1.56s-15.24-1.79-12.4-5.87c7.41-10.69,11-9.95,7.95-14.62C855.87,370.4,861.58,371.12,863.68,370Z"/><path d="M194.05,463.09c-6.58,5.5-13.5,10.23-23.6,5.58.19-2.17.41-4.74.68-7.93,4.23.67,7.35,1.6,10.45-1.44,1.42-1.41,5.15-.83,7.95-1.16,2.76-4.53-3.13-4.87-4.35-7.67l1.9-15c4.49,5.91,5.25,11.7,9.54,15.66,4,3.73,7.22,8.25,10.78,12.42C201.7,466.5,201.7,466.5,194.05,463.09Z"/><path d="M261.14,417.3c-2.51,2.79-7.27,4.73-3.94,9.47-4,2.32-7.71,3.83-12,2.83,4.51-8.65,6.69-10.3,1.12-11.3-.06,3.88-6.78,6.79-1,11.2,1.2,5.7-5,5.25-7.07,7.83L227,434.73c3.14-3.93,6.16-7.55,6-12.86-.06-2.57,3.68-5.37,6.11-8.63,4.38,4.09,11.68-.84,15.28,5.55,1.29-1.77,1.74-.89-1.66-5.26-2.35-3-2.36-3,2.76-6,2.32,1.61.8,6.29,5.26,6.45C261.07,414,260.89,417.73,261.14,417.3Z"/><path d="M930.56,198.84c.77-3.54,1.19-5.51,1.71-7.93l5.23-.41c-.69,5.63-4.07,9-8.55,12,6.31-.24,11.79-1.61,15.1-7.54,1.55,7.1-6.88,8.64-9.31,13.92,4.63,1.83,6.17-2.49,9-3.68,1.75,3.25,1.75,3.25-3.56,9.26-5.19.15-9.13-1.68-10.59-5.74l-13.79,1.73c.06-2.37.1-4,.15-5.95-2.57-2.09-8,.87-9.45-3.74-1-3.13-5-5.51-2.15-10.15,4,3,7.26,6.9,11.61,8.31C920.11,200.23,925.36,199,930.56,198.84Z"/><path d="M1071.32,270.4l-4.16-2.09c2.59-2.48,3.93-5.45,1.2-8.94,9.37,1.75,10.1,2.71,8.08,10.22,6-2.83,3.4-1.94,10.17-3l-4.16,4c5.57,9.07-5.39,10.05-6.11,13C1075,289,1068.2,286,1066,289.83c-17.79-8.08-7.66-1.09,3.89-10l-6-4.73Z"/><path d="M648.86,188.44c-6.31-3.68-2.16-9.16-4.61-12.93l6.73-7.15c-3.68-6.58-3.65-6.64,7.29-13.22,2.37,2.05,3.41,7.61,3.64,19.51Z"/><path d="M847.55-2.06c-1.83-1.57-3.28-3.74-5.39-4.48a20,20,0,0,1-11.51-9.84c-.92-1.68-2.93-2.78-4.14-4.35-.64-.85-.64-2.13-1-3.71,9.51-.36,22.68,7.05,22.16,14.59-.32,4.55,9.16,11,3.19,16.12-4,3.49-8.57,3.88-13.7.87Z"/><path d="M965,250.81c-3.91-3.53-13.91-4.17-1.21-11.86,2.81-1.71,5.48-4.51,10.1-3.94,2.91.36,6.38-2.24,9.75-3.57,2.74,2.75,3.07,5.29,0,8.58-2.72,2.9-4.65,6.44-7.47,10.47C963.76,250.81,964.81,250.75,965,250.81Z"/><path d="M197.24,428.71c12.53-.81,15.45,5.1,8.26,18.19-3.9-.74-9.05.74-11-3.95C191.27,435.34,196.11,430.63,197.24,428.71Z"/><path d="M693.55,52.22c-1.8,7.82-9.4,8.44-10,9.24-4.3,6.05-10,3.69-16.07,3.35.73-3.7,1.35-6.89,2-10.17,3.21,1,6.42,2.86,9.5,2.57,2.92-.27,5.71-2.82,8.37-4.27l-.89-8.22,8.31-.65c.05.18-.08-2-.06,6.85Z"/><path d="M764.73,69.65c-3.72-11.35,8.91-4.07,9.87-13.49-18.8-.51-14.89.77-18.74-5.09,3.3-3.39,3.85.21,5.33,1.33l4.61-2.85c3.84,1.84,8.83,2.79,10.8,5.61,1.69,2.43,1.16,7.67-.68,10.43C772.49,70.76,785.19,72.44,764.73,69.65Z"/><path d="M683.5,178.14c-1.76-9.22-15.7-.58-14.48-9.2,1-6.94,15.67-4.52,26.08,7.74l.09-.13c-3.49,5-8,.35-11.83,1.52Z"/><path d="M661.72,605.53c-4.43-1-8.45-4.11-13.07,2.51-.08-3.75-.81-5.74,0-6.72,3.08-3.84,5.8-7.71,5.85-12.71l15.28,4.76C661.63,599.46,663.75,596.24,661.72,605.53Z"/><path d="M634.94,548.26c.18-3,.34-5.68.51-8.58,5.29.41,9.79,1.35,14.2.92s8.42-1.79,12.87,1.75l-8.26,4.91c-1.7-4.78-.15-4-7.33-2.62-.52,2.51-1,4.81-1.64,7.93Z"/><path d="M258.31,162.46c6.51.29,13.52-6.59,19.51,1.26-3.25,3.18-4.14,8.5-9.78,8.57C261.91,172.37,259.87,167.76,258.31,162.46Z"/><path d="M830.9,357.21c-2,4.39-6,3.75-9.63,3.89-4.35-3.6-1.85-7.4-.49-10.58-4.25-6.79-4-5.26-1.94-7.21,12.59,6,10.13,2.73,11.95,14Z"/><path d="M673.51,268.29c-4-7.8-3.74-4.86-.31-12.86-1.84-1.09-.58-1.44-6.78,2.92-6.15-8.76,1-15.63,2.59-10.72,1.45,4.36-5.25,4.4,8.72,1.32C677.4,255.67,679.15,261.89,673.51,268.29Z"/><path d="M756.81,13.24c3-1.14,5.47-2.58,8.07-2.93,11.4-1.52,8.66,10.6.49,11.65C760.88,22.54,758.92,20.36,756.81,13.24Z"/><path d="M712.48,192.42c0-.2-2.66.1-4.6.19,1.37-3.16,2.68-6.15,4.49-10.32l17,12.83c-1.33,4.7-4.86,1.26-7.32,1.81C716.35,194.54,713.26,196.68,712.48,192.42Z"/><path d="M930.09,434.26c-1.26,3-1.5,4.59-2.45,5.63-2.4,2.66-6.61,4.27-5.39,8.83.1.39-2,1.94-3,1.87s-2.5-1.53-2.42-2.31c.86-8.63,5.2-4.32-4-10.51C913.51,435.39,910.83,436.25,930.09,434.26Z"/><path d="M948,241.48c-19.41,6.15-13.52,6.14-26.75,1.11,8-7.4,1.91-3.24,16-2.85C948.91,240.05,947.24,236,948,241.48Z"/><path d="M963.44,176.19c3.17-13.79.32-8.46,10.39-10.08,2.35-.38,4.6-1.42,7.63-2.41-2,6.8-2.2,10.66-7.92,10C970.71,173.43,967.53,175.11,963.44,176.19Z"/><path d="M942.72,192.16c-5.16-6.37-5.09-4.15-.48-8.84,3.62-3.67,3.44-3.47,7.91-.3,2.08,1.48,5,2,8,3-5.46,6.75-10.31,1.27-15.68,1C943.87,192.48,944,191.63,942.72,192.16Z"/><path d="M792.41,215.85c-2.61-2.88-8.83.84-8.87-5,3.91-.24,7.62-.55,11.33-.67,8.89-.31,9.4,16.36-6.73,8.33Z"/><path d="M229,406.69c4.38.75,7.44,1.37,6.72,5.3-1.05,5.75-4.79,8.21-14,8.95C224.19,416.07,226.52,411.49,229,406.69Z"/><path d="M686.05,94.83c-3-8.76-7.64-9.12.29-19,1.61-2,4.09-2.56,5.51-.74,1,1.25,1,5.05.32,5.31-6.18,2.53-3.83,7.19-4.26,11.16C687.84,92.2,687.2,92.84,686.05,94.83Z"/><path d="M830.79,357.34l7.1-2.26c7.37,10.3,5.69,7.07,5,11.89-5.43-1.7-3.81-1.06-5.81-2.68-2.26,1.54-3.37,5.57-6.53,3.28C830.94,356,831,357.14,830.79,357.34Z"/><path d="M97.79,410.32c2.81-12.27,2.81-12.27-2.41-19.37l7.77.4,3.65-6.58c.62,4.8,1.7,7.91-1.65,11.2C102.27,398.8,106.11,408.34,97.79,410.32Z"/><path d="M330.83,74.28c2.36-6.94,2.75-10.57,6.62-11.37,1.14-.24,4.12,2.41,3.88,5.71-.19,2.76-.76,5.51-1.34,9.4C335.59,74.05,338.05,74.73,330.83,74.28Z"/><path d="M271.91,322.94c4.52,2.72,11.3,1.34,14.86,7-1,.78-2,2.27-2.91,2.24C274.79,331.86,266,330.85,271.91,322.94Z"/><path d="M964.57,180.43c1.6.26,12.36.06,10,8.35-.85,3-5.27,4.35-6.64,2.39-1.9-2.73-3.35-5.74-5-8.65C963.5,181.83,964,181.13,964.57,180.43Z"/><path d="M530.78,580.73c-1.5-2.24-3-4.45-4.32-6.47,3.83-4.72,6.07-.45,9.06.09.6-5.13,4.94-4.83,9.38-6.09C542.94,575.73,536,577.09,530.78,580.73Z"/><path d="M778.55,686.08l7.61-9.61c3.62,2.39,6.33,5.07,5.23,9.66C787.1,691.05,782.88,684.32,778.55,686.08Z"/><path d="M921.87,680.22c-2.15,5.34-5.53,6.65-14,5.41C911.08,677.38,911,676.71,921.87,680.22Z"/><path d="M588.31,610.92c-.39,4.65-6.09,3.68-7.81,7-5.86-2.83-3.67-7.3-3.79-11.88C589.83,611.06,588.61,610.4,588.31,610.92Z"/><path d="M1044.77,65l-3.06,5L1025,69.85C1025.57,63.18,1040.71,64.87,1044.77,65Z"/><path d="M683.81,628.09l9.6-2.52,5.29,8.85C691.57,634.83,686.72,633.89,683.81,628.09Z"/><path d="M685.81,734.15l11.15-8c.95,2,2,3.4,2.31,5,1.08,5.93-4.24,4.9-11.43,4.43C687.62,735.58,687.43,735.31,685.81,734.15Z"/><path d="M984.18,203.33c.25,2.65.47,5,.7,7.5-6.38,1.47-9.74-2.43-14.06-4.15C971.25,204.3,969.17,205.13,984.18,203.33Z"/><path d="M536.12,197.11c2.8,1.7,15.63,7.48,7.21,10.5-2.48.89-5.11,1.4-7.23,1.95C536.11,205.54,536.11,202.11,536.12,197.11Z"/><path d="M703.87,427.26c-4.92-.44-9.46.28-11-4.87,3.75-2.08,7.39-4.52,12.77-2.07C705.07,422.45,704.5,424.72,703.87,427.26Z"/><path d="M248.46,360.06c-6.27-6.44-7.36-9.5-5.18-12,1.92-2.23,4.58-1.81,10.19,1.89C250,352.09,246,354,248.46,360.06Z"/><path d="M806.84,235.79l10.77-3.6c-5.41,5.56.36,8.4-.3,12.95C807.34,242.65,809.9,244.64,806.84,235.79Z"/><path d="M772.59,272.73c-6,6.71-9.82.34-15.35,3.49C769.36,248.15,756.27,273.57,772.59,272.73Z"/><path d="M1065.46,338.49l12.61-7.61c2,2.63,1.68,5.69-1.18,8.16C1073.16,342.26,1069.54,340.61,1065.46,338.49Z"/><path d="M807.35,71.48l-11.72,5.41-3.42-10.46Z"/><path d="M3.39,164.88c4.72-1.18,8.72-3.61,13.26,1-2,1.72-3.77,4.32-5.81,4.65C7,171.2,5.77,167.67,3.39,164.88Z"/><path d="M612.42,560.56c-9.14-4-10.95-9.4-5.81-16Z"/><path d="M202.26,702.74c12.67-.26,13.24,7.65,10.78,9.42C209.79,714.51,207.91,710.31,202.26,702.74Z"/><path d="M448.24,145.51c-.16-5.21.13-10.28-3.84-14.19-.56-.56.94-2.91,1.48-4.42,1.23.94,3.16,1.66,3.55,2.87,1.07,3.29,1.24,6.86,2.26,10.16C452.53,142.67,451.69,144.18,448.24,145.51Z"/><path d="M601.68,602.37c1,3.1,1.87,5.77,2.73,8.44-5.59-3.14-11,2.26-16.1.11C588.17,611.16,586.63,611.73,601.68,602.37Z"/><path d="M349.72,381.57c-1.34,6-2.37,10.56-3.41,15.18C339.29,391.3,339.82,386.94,349.72,381.57Z"/><path d="M809.92,329.94l4.76-2.52c4.11,7.72,4.13,8.35-.12,14.23C812.08,333.15,813.22,336.23,809.92,329.94Z"/><path d="M1001.71,238c1.36.94,3,2.93,4.06,2.66,6.54-1.64,7.39,2.31,8,6.49C1005.75,247.9,1004.56,247.14,1001.71,238Z"/><path d="M895.73,106c-2.24-5.06-1.52-8,3.74-9.45l7.47,8.1C902.94,109.3,899.6,100.21,895.73,106Z"/><path d="M526.86,542.81c7.54-1.34,6.24,6.92,6.44,14.73C527.05,558.55,528.2,556,526.86,542.81Z"/><path d="M952.62,295.3c-4.21,3-8.38,6.09-15,3.89l9-7.32C953.25,295.83,952.57,295.51,952.62,295.3Z"/><path d="M745.8,417.13c-1.56,4.31-2.89,8-4.27,11.81-4.19-2.64-4.63-4.51-2.73-9.49C739.78,416.87,739.78,416.87,745.8,417.13Z"/><path d="M693.55,52.22c2.26-2.48,4.07-4.25,1.18-8.25.13.16-.23.37,2.81-2.42l8,10.12C700.52,51.76,697.22,54.42,693.55,52.22Z"/><path d="M991.7,162.17l4.83,4.84L989,172.89C985.6,167.33,985.6,167.33,991.7,162.17Z"/><path d="M721.65,228.87l4.43,6.26c-3.88,6.88-3.88,6.88-8.83,4.9C718.56,236.69,719.88,233.37,721.65,228.87Z"/><path d="M750.28,438.47l-6-5c2.65-3.89,5.35-5.31,10.17-3.08Z"/><path d="M319.33,742.74c3.49,8.33,3,9.15-6.66,11.25,1.25-2.15,3.28-4.07,3-5.46C315,745.54,316.59,744.48,319.33,742.74Z"/><path d="M170.29,455.94c-.92-7.74,11.39-9.29,9.23.15Z"/><path d="M676.9,241.07c7,.4,7,.4,8.22,6.39C678.9,247.6,678.77,247.51,676.9,241.07Z"/><path d="M606.42,568.17c6,2.74,12.33-3.28,16.64,4.57-4.19-1.08-7.3-2.74-10.71.48C610.68,574.8,608.07,572.63,606.42,568.17Z"/><path d="M836.8,341.45c4-.41,8-5.2,13.37-.05C844.75,342.82,840.73,345.75,836.8,341.45Z"/><path d="M867.48,98.07c.21,3.32.31,4.76.46,7.06-8.7-1.12-6.3-.3-8.35-3.93Z"/><path d="M181.74,424.29c-2.73-7.77-1.21-10,7.31-11.67C188.87,412.47,189.73,411.22,181.74,424.29Z"/><path d="M643.66,692.2c5.59-3.52,8.63-1.32,10.33,6.33C652.08,700.15,653.92,700.9,643.66,692.2Z"/><path d="M993.62,278c.55-3.62,1-6.5,1.52-9.91C1001.5,272.16,1001.21,274.13,993.62,278Z"/><path d="M729.84,221.76c-2.11,2.85.93,1.8-11.15,4.22-.24-.22-.47-.46-.69-.7.88-5.07,2.48-6.79,6.92-7.45.17-.15.31-1.15-.94,4.1C727.77,220,726.44,219.92,729.84,221.76Z"/><path d="M660,146.4l-5.46,3.29c-3.31-3.58-3.31-3.58-1.68-8.7Z"/><path d="M556.76,635.55c-3-5.95,3.33-6.27,5.63-8.85C563.28,630.74,563.22,634.31,556.76,635.55Z"/><path d="M810.84,209.1l7.72.4c-.55,4.43-3.92,4.87-7.45,6.36C811,213.45,810.94,211.65,810.84,209.1Z"/><path d="M976.55,133.51c-.77-2.95-1.39-5.31-2.12-8.07,3.93-.93,5.86.61,6.86,3.46C981.87,130.58,981.6,130.77,976.55,133.51Z"/><path d="M978.07,308.42l-7.51-2.77C973.51,299.77,983.7,302.49,978.07,308.42Z"/><path d="M556.31,556.82c.84-2,1.37-4.25,2.65-6,.57-.8,3.16-1.38,3.84-.9.89.63,1.51,3.08,1,3.6-1.79,1.71-4.15,2.9-6.3,4.29Z"/><path d="M788,267.89l-10.12,2.66,2.35-7.43Z"/><path d="M730.21,45.36c.53,3.61.9,6.1,1.29,8.72-3.39.1-1.28,1.18-8-4.18Z"/><path d="M718.55,31c-.16-2.4-.28-4.1-.4-6,5.79-2.25,5.94,3.66,9.14,5Z"/><path d="M1002.1,265.85c-4.68-2.8-1.74-5.22-.41-8.44l5.08,2.89Z"/><path d="M1064.24,329.26c-3.07,2.9-5.16,5.18-9.13,3.66-.27-3.25,1.27-5.24,4.24-5.69C1060.68,327,1062.22,328.37,1064.24,329.26Z"/><path d="M1046.92,298.84c9.34-2,9.93,4,7.93,5.45-2.5,1.78-4.18-1.16-8.09-5.52Z"/><path d="M652.64,44.7c-2.77-3.38-10.46.49-10.71-6.4C644.54,42.08,652,38,652.64,44.7Z"/><path d="M798.49,89.27c3.71,3,7.87,4,5.06,9.37C799.38,97,798.6,94.13,798.49,89.27Z"/><path d="M769.65,197.49l6.11,4.46-6.19,4.74C767.71,197.66,767.51,199.21,769.65,197.49Z"/><path d="M508.62,213.36l-8.87,8.24C498.87,216.47,500.31,215,508.62,213.36Z"/><path d="M865.86,315.88l-6.3-2.74,2-5.34C866,309,865,312,865.86,315.88Z"/><path d="M808.2,264.65l-6.49-6.41C806.86,256.24,808.28,257.19,808.2,264.65Z"/><path d="M784.77,73c.34-2.47.63-4.55,1.13-8.12l7.6,5.82Z"/><path d="M919.79,32.56c-5.66.12-7.22-1.92-6.67-6.35C917.56,26.39,919.89,27.82,919.79,32.56Z"/><path d="M255.74,257.24c-1.59-4-2.49-6.69,1.47-9.3C259.82,251.24,260,253.92,255.74,257.24Z"/><path d="M672.87,156.73l-6.48,4.14c-2.94-1.36-3.17-3.14-1.35-5C667.36,153.57,669.76,153.91,672.87,156.73Z"/><path d="M984.75,222.08c-2.37,5.22-7.51,4.41-11.34,7.22C973.53,223.54,971.8,224.91,984.75,222.08Z"/><path d="M265.65,350.32c-4.28,2.29-4.28,2.29-8.32-2.14C262,346.37,262,346.37,265.65,350.32Z"/><path d="M932.06,666.33c-6.94-.67-5,5.39-8.79,9.58-.36-4.28-.56-6.56-.77-9.11C932.19,664.25,930.61,664.13,932.06,666.33Z"/><path d="M662.36,257l-9.89-1.1C653,251.07,661.44,249.92,662.36,257Z"/><path d="M780.65,665.77c-2.31,5.22,0,3-7.76,9.21l-3.25-2.22C781.64,665.31,780.84,665.91,780.65,665.77Z"/><path d="M237.39,753.53c2.76,6.55,1.57,8.76-4.86,10.22A92.94,92.94,0,0,0,237.39,753.53Z"/><path d="M652.18,85.38l6.09,4.88c-1,2.6-2.7,3.42-4.94,2.19C650.71,91,650.33,88.88,652.18,85.38Z"/><path d="M761.12,695.7c-3.48-6.12-3.23-6.63,4.57-9.63C764.13,689.36,762.69,692.38,761.12,695.7Z"/><path d="M240.86,387.09c6.12-4,6.3-3.92,7.25,2.31Z"/><path d="M716.81,205.61c-5.07,1.37-7.19-1.57-9.87-5.43C717.5,199.64,715.76,206.35,716.81,205.61Z"/><path d="M812.62,321.27l9.1-5c-.24,1.73.09,3.53-.71,4.22C818.83,322.41,816.17,323.66,812.62,321.27Z"/><path d="M765.94,703.85l-8.78,2.32c1.52-3.6,3.16-6,7.07-5.52C764.89,700.73,765.24,702.48,765.94,703.85Z"/><path d="M700.5,614.36c1.82-6,1.82-6,7.06-5.09C705.49,611.54,705.67,615.71,700.5,614.36Z"/><path d="M690.13,551.07l-4.83-1.17c-.53-2.84.52-4.53,3.25-4.22C692,546.06,691.78,548.21,690.13,551.07Z"/><path d="M718.82,249.42c-3.49-1.41-6.54-1.76-7.58-3.3-1.19-1.77.6-3.69,3.46-3.87Z"/><path d="M721.35,210.84l-9.28.83,4.74-6.06-.14.09C721.73,211.44,721.24,211.07,721.35,210.84Z"/><path d="M893.82,274.94c-.48,2.61-.81,4.46-1.15,6.31-2.52-.27-1.58,1.06-3.7-5.33Z"/><path d="M827.83,247.24c3.36,1.42,6.1,3.28,4.43,8.33C825.28,247.54,825.71,249.1,827.83,247.24Z"/><path d="M139.88,637.45c-7.51-1.65-2.56-7.87-.23-6.7C143.13,632.49,141.29,634.77,139.88,637.45Z"/><path d="M1056,305.66c-2.21,7.18-2.32,7.27-9.46,7.15Z"/><path d="M1011.78,235c-7.16-1.18-7.23-1.3-5.28-7.79Z"/><path d="M690.84,247.07c5.43-4.94,5.43-4.94,10.35.58Z"/><path d="M742,67.79c3.71-5.61,3.71-5.61,8.54-1.52Z"/><path d="M741.24,406.15c6-.16,6-.16,3.73,7.23Z"/><path d="M564.32,192.27c-3.64-1.73-5-3.45-2.39-6.73C565.06,186.71,566.45,188.35,564.32,192.27Z"/><path d="M251.36,371.54c.75-1.79,1.49-3.58,2.47-5.93,1.28.82,2.53,1.16,2.84,1.88C258.22,371.16,255.14,371.54,251.36,371.54Z"/><path d="M1056,67.12c-5-1.7-2.71-4.73-3.33-7.93C1057.73,60.8,1057.47,63.38,1056,67.12Z"/><path d="M248.22,368.29c-2.07,6.83-.84,5.95-5.14,4.68C245.92,366.49,244.73,367.38,248.22,368.29Z"/><path d="M642.89,442.82c-5.06-4.86-2.6-7.66-.23-10.46C644.86,433.07,644.62,431.42,642.89,442.82Z"/><path d="M731.39,512.85c-.83,4.42-2,6.81-6.63,6.06C723.93,514.59,726.53,513.53,731.39,512.85Z"/><path d="M992.28,289.53,985,293.8C985.49,288.47,986.68,286.17,992.28,289.53Z"/><path d="M560,496.53c-3.19-3.38.91-5.72,1.16-9.09C568.44,493.46,558.68,496,560,496.53Z"/><path d="M652.69,18.57c-4.5-2.94-6.68-5.06-3.84-9.26C649.89,11.82,650.93,14.34,652.69,18.57Z"/><path d="M829.21,301.39l6.95,6.84C830.63,308.48,830.63,308.48,829.21,301.39Z"/><path d="M157.21,159.61c2.78-2.49,4.82-1.74,7.68,2.51C155.61,161.7,157,162.43,157.21,159.61Z"/><path d="M796.17,675.54c-6.26-4.57-6.26-4.57-2.58-8.12C796.93,668.91,796,671.66,796.17,675.54Z"/><path d="M840.13,228.09c1.75,3.85,2.41,6.49-1.86,9.1C837.32,234,836.08,231.42,840.13,228.09Z"/><path d="M326.27,56c-1.07-4.6-2.45-7.65,1.49-9.13C330.41,48.24,330.39,46.7,326.27,56Z"/><path d="M774.49,692.74c-.23,5.08-2.55,5.32-6.19,3.55Z"/><path d="M857.63,354l5.61-4.49c.67.32,1.43.48,1.44.71C864.85,354,863.6,356.15,857.63,354Z"/><path d="M384.77,796.79l8,5.08C386.74,803.42,386.74,803.42,384.77,796.79Z"/><path d="M649.51,589.32c-2.8-1.93-4.24-2.5-4.82-3.52-.25-.45,1.35-2.61,2-2.58a5.25,5.25,0,0,1,3.71,1.72C650.86,585.66,650,587.22,649.51,589.32Z"/><path d="M849.56,314.29c-6-3.81-6-3.81-.17-7.76C849.45,309.3,849.49,311.41,849.56,314.29Z"/><path d="M781.86,325.8c4.37,3.9,4.69,2.18,1.18,6.67C779.76,330.12,779.72,332,781.86,325.8Z"/><path d="M311.57,702.44l4.1,3.74c-1.36,1.39.43,1.35-8.16,0Z"/><path d="M210.39,416.09l3.55,7.48c-2.94-1.17-4.73-1.45-5.84-2.4C205.5,418.92,208.14,418,210.39,416.09Z"/><path d="M214.81,286.17c-6.53,3.44-6.53,3.44-7.84-2.6Z"/><path d="M189.05,412.62c2.94-3.11,2.71-4.1,7.08-3.61.34,0,.86,1.65.65,1.82a10.59,10.59,0,0,1-3.84,2.22C191.51,413.36,188.61,412.26,189.05,412.62Z"/><path d="M808.43,168.31c-.22,5.44-3.77,5-6.49,5.61C800.49,172,799.3,173.2,808.43,168.31Z"/><path d="M179,86.42c3.72,2.5,3.6,1.24-.24,5.71C176.07,90,175.8,91.59,179,86.42Z"/><path d="M936,156.22l-6.27,7.44C929.13,159,929.61,156.73,936,156.22Z"/><path d="M797.05,683.59c5.45-2.76,6.36-.1,7.48,4.29Z"/><path d="M751.24,678.91c0,2.62.49,5.58-5.62,4.64C750.29,676.91,749,677.66,751.24,678.91Z"/><path d="M957.51,226.56c3.91,2.23,2.5.51,5.4,5.8C958,233,957.45,230.83,957.51,226.56Z"/><path d="M753.09,222.33l3.33,5.2C751.61,228.44,751.61,228.44,753.09,222.33Z"/><path d="M805.54,185.07c-2.93,3.64-5.71,4.72-8.54.57Z"/><path d="M226.67,395.36l6.18,2.86-6.78,5C226.32,400,226.46,398.12,226.67,395.36Z"/><path d="M189.12,712.81c2-5.4,4.81-3.79,7.68-2Z"/><path d="M683.36,178.07c2.14,8.13,3.26,7.35-3,3.77C683.85,177.73,683.6,178.19,683.36,178.07Z"/><path d="M695.1,176.68c4.15.13,4.63,2.39,3.89,6C694.43,181.56,696.06,175.32,695.1,176.68Z"/><path d="M604.43,236.45c3.18,4-.07,5.62-1,7.75C600.54,243.23,600.69,244.74,604.43,236.45Z"/><path d="M952.58,295.44c6.63-5.82,5.26-5.32,6.69-3.72-1.62,2-2,5.67-6.65,3.57Z"/><path d="M937.22,590.76c.89-3.27,1.33-4.91,1.81-6.69C942,586.68,942,586.68,937.22,590.76Z"/><path d="M838.65,178,833,174.44C836,173.61,839.26,172.1,838.65,178Z"/><path d="M697.56,719.23c-2.3-4.41-2.76-3.38,1.38-4.77C699.68,719.51,700.07,718.53,697.56,719.23Z"/><path d="M173.45,443.22c-5.38,2.88-7.13-2.31-5.19-3C171.14,439.2,172.62,440.48,173.45,443.22Z"/><path d="M749.12,53.23c2.91,2.28,4.21,3.31,6.2,4.88l-6.25,1.22C749.08,57.75,749.1,56.43,749.12,53.23Z"/><path d="M1004.22,85.13c-.83-1.22-1.7-2.42-2.41-3.7,0-.07,1.65-1.25,1.79-1.13a31.78,31.78,0,0,1,3,3Z"/><path d="M515.84,209.07c-1.45-2.52-2.17-3.77-3.44-6l6.53.21Z"/><path d="M736.39,244.82c4.72-1.77,5.61-.2,6.05,2.57C739.23,248,740.84,248.82,736.39,244.82Z"/><path d="M1018.37,265.14c-1.59-.93-3.28-1.4-3.34-2.07a3.61,3.61,0,0,1,1.66-3c.89-.4,2.34.35,3.54.6Z"/><path d="M972.37,219l-7.16-2.93,8.7-1.77C971.93,219.61,972.12,218.88,972.37,219Z"/><path d="M784.58-2.8c3.77,3,3.41,4.76,1.23,6.13-.57.36-1.8-.22-2.72-.37C783.49,1.39,783.9-.17,784.58-2.8Z"/><path d="M273.15,437.73c-3.14,3.11-1.78,2.79-5.16,1.53C270.53,435.59,269.31,436.32,273.15,437.73Z"/><path d="M714.81,335.38c-1.57-.91-2.81-1.22-3-1.83a2.85,2.85,0,0,1,.83-2.56c.5-.37,2.49,0,2.58.35C715.48,332.31,715.07,333.45,714.81,335.38Z"/><path d="M1045.19,304.75c-.88-.37-2.3-.54-2.53-1.15-1.1-2.87,2.24-3,3.58-4.31C1047.93,297.56,1046.2,301.75,1045.19,304.75Z"/><path d="M585.85,3.24c-4,3.67-2.45,3.42-6,2.3C580.07,3.42,578.85,4,585.85,3.24Z"/><path d="M686.78,455.46c-4.14,2.84-2.17,3-7.38.81C681.46,453.44,679.47,453.53,686.78,455.46Z"/><path d="M510.07,504.78,504.5,503C507.92,500.3,509.49,501.13,510.07,504.78Z"/><path d="M214.83,585.24c-.45,2.53-.74,4.18-1.11,6.24-1-.35-1.86-.4-2.19-.81C209.61,588.22,210.67,586.63,214.83,585.24Z"/><path d="M543.48,512.05c2.45-5.06,2.45-5.06,6.89-2.89C547.75,513.14,541.53,511.43,543.48,512.05Z"/><path d="M505.51,595.35c-1.4,1.92-1.74,4.35-5.05,1.4-.22-.2.69-2.18,1.21-2.25C502.74,594.36,503.89,594.94,505.51,595.35Z"/><path d="M547,12.09c2.58-.08,2.1-1,2.49,3.79C546.34,16.17,547,16.92,547,12.09Z"/><path d="M611.18,599.86c-.9,4.57-3,4.88-5.25,4.93C604.41,602.38,603.61,603.54,611.18,599.86Z"/><path d="M324.75,701c-4.07,2.44-2.52,2.86-6.12-.12C321.35,698.91,319.75,698.7,324.75,701Z"/><path d="M728.53,599.83c3.15-3,4.78-2.91,6.78,1Z"/><path d="M302.19,718.94l-7.59,2C296.56,716.22,299.14,717.53,302.19,718.94Z"/><path d="M751.33,699c1.33,5,1.88,4-1.85,4.9C748.41,698.79,747.88,699.81,751.33,699Z"/><path d="M1020.65,630.41c-2.33,3.09-.91,3.05-5.18,1.56C1017.15,628.23,1016,628.71,1020.65,630.41Z"/><path d="M703.19,722.09l7.4,2.65C705.77,727.11,705.77,727.11,703.19,722.09Z"/><path d="M134.72,882.46c2.44,0,5.13-1.42,8.23,2.32C133.17,884,134.67,884.68,134.72,882.46Z"/><path d="M750.12,43.81c-5.52.39-5.61-1.46-4.29-5.15Z"/><path d="M666.26,143.54c4.24,2.49,2.52,4.07-.93,6.06C664,144.66,664,146.27,666.26,143.54Z"/><path d="M528.18,187c-5,3.22-6.12,1.46-7.48-2.38Z"/><path d="M680.91,192.87l-5.07,5.25C675.34,193.39,677.47,192.6,680.91,192.87Z"/><path d="M643.4,598.5c1-1.67,2-3.35,3.23-5.39C647.93,596.93,647.93,596.93,643.4,598.5Z"/><path d="M279.47,352c-3.63,1.48-5.31.83-6.21-2.14C276.4,348.23,277.92,349.46,279.47,352Z"/><path d="M728.4,244c-3.33,2.68-3.33,2.68-5.47-.85Z"/><path d="M572.7,324.72c-1.38.6-2.75,1.25-4.18,1.72a4.91,4.91,0,0,1-1-1.56c1.21-.88,2.53-1.63,3.81-2.42Z"/><path d="M972.19,218.92c3.33,9,2.42,7.3-5.74,1.66C973.24,218.8,972.44,219.07,972.19,218.92Z"/><path d="M933.26,250.11l1.9,7.22C930.3,255.5,933.05,252.55,933.26,250.11Z"/><path d="M995,626.34l-7.52,2C990.44,624.11,992.79,625.69,995,626.34Z"/><path d="M621.17,263.65c1.27-3.45-.37-2.67,6-3C627.39,263.15,628.59,262.42,621.17,263.65Z"/><path d="M628.37,191c-5,.74-4.63,1.79-1.63-4.06,1.56.22,1.11-.55,1.51,4.16Z"/><path d="M443.66,103.72a12.84,12.84,0,0,1-3.16,2,2.64,2.64,0,0,1-2.15-1.37,2.56,2.56,0,0,1,1.06-2.26c.59-.35,1.71.08,2.59.16Z"/><path d="M291.37,286.65c-2.37-4.07-2.23-3.09,0-4.38C293.7,286.54,293.82,285.61,291.37,286.65Z"/><path d="M976.37,603.78c-4.36,2.76-2.66,2.89-6.76.92C971.83,601.66,970.24,602.21,976.37,603.78Z"/><path d="M253.83,144.4l4.4-.78a6.63,6.63,0,0,1,.19,1.33C253.28,146.61,254.14,146.34,253.83,144.4Z"/><path d="M660,15.78c.27,2.51,1.35,1.8-4.25,3.28C655.25,15.8,654.42,16.6,660,15.78Z"/><path d="M729.84,221.76c-3.33-1.8-2.27-.94-4.85-4.09-.11.23-.87.27,5.17-.57C730.05,218.65,730,220.2,729.84,221.76Z"/><path d="M651.23,199.47c5.73-2.22,4.62-2.3,5.51-.47C651.33,201.86,652.49,201.88,651.23,199.47Z"/><path d="M738,237.7c5.28,3.17,4.5,2.27,4,4.06C736.16,242.13,737.05,243.19,738,237.7Z"/><path d="M693.64,151.17c1.18-4.88.24-4.21,3.82-3.44C695.31,152.52,696.2,151.87,693.64,151.17Z"/><path d="M54.69,558.88c1.09.87,2.42,1.72,2.32,1.88-2.31,3.93-2.86,2.33-4.62,1.41Z"/><path d="M274.05,761.61c-1.16,1-2.06,2.24-2.49,2.13a4.3,4.3,0,0,1-2.61-1.87c-.23-.45,1-1.55,1.5-2.36Z"/><path d="M704.47,255.71c.4,5.25.76,3.57-1.92,6.18C699.76,259,701,257.55,704.47,255.71Z"/><path d="M715.89,582c3.63,2.1,3.53.88,1.05,4.45C714.19,584.49,714.53,585.64,715.89,582Z"/><path d="M619.83,601.23c5-3.89,3.77-3.68,5.65-1.56C620.42,603.47,621.64,603.25,619.83,601.23Z"/><path d="M686.06,437.56c-1.49-.27-3.36-.12-4.38-.9-1.22-1,.76-2.5,2.88-2.05C687.44,435.22,687,434.59,686.06,437.56Z"/><path d="M748.31,83.56c-2.2,4.63-2.2,4.63-7.2,2.62C749.28,83.35,748.55,83.69,748.31,83.56Z"/><path d="M659.34,105.38c-1.77,2.63-3,4.42-5.06,7.55C653.36,108.25,654.42,106.39,659.34,105.38Z"/><path d="M752.73,82.51c-.88,1.47,0,1.2-4.42,1C749.19,80,746.09,78.74,752.73,82.51Z"/><path d="M688.23,96.54c1.81,1.66,2.25.66-1.41,4.63C684.88,99.69,684.69,100.69,688.23,96.54Z"/><path d="M660,102.66c.27-4.06-.39-3.3,3.15-3C661.48,103.64,662.22,103.06,660,102.66Z"/><path d="M730.27,151.31c3,4.06,2.08,2.22,2.61,7.29C727,153.38,727.37,155,730.27,151.31Z"/><path d="M103.75,632.79c-2.8,3.05-1.35,3.06-5.35,1.28C100.93,631.29,99.7,631.89,103.75,632.79Z"/><path d="M173.08,432.19c.52,2.41,1.38,1.82-3.26,3C169.12,433,168.5,433.67,173.08,432.19Z"/><path d="M204.27,689.44c-3.82,4.53-2.41,3.73-5.57,2.39C200.86,688.37,199.62,689.26,204.27,689.44Z"/><path d="M735,232.44c1.43.63,2.66.81,3,1.44.26.45-.48,1.93-1.09,2.18a2.75,2.75,0,0,1-2.5-.69C734.11,234.89,734.72,233.78,735,232.44Z"/><path d="M497.82,251.9c-3.37,2.54-2.06,2.7-5.25.7C495,249.87,493.67,250.13,497.82,251.9Z"/><path d="M599.39,514.31c2.29-6.35,1.39-5.55,3.59-4.83C600.13,515.67,601,514.86,599.39,514.31Z"/><path d="M582.1,757.25c-3.27-2.52-4.23-4-2.51-6C582.44,751.31,581.81,750.1,582.1,757.25Z"/><path d="M286,413.43,283.35,418c-.79-.51-1.41-.69-1.51-1C281,414.21,281.77,412.74,286,413.43Z"/><path d="M250.72,751.06c1.35-.54,2.7-1.09,4.07-1.54a2.45,2.45,0,0,1,.68,1.06c-1.05,1-2.2,1.83-3.32,2.73C251.68,752.56,251.2,751.81,250.72,751.06Z"/><path d="M569.4,616.41c4.32,3,3.88,2.16,2.48,3.73C567.79,616.93,568.23,617.73,569.4,616.41Z"/><path d="M1003.87,168.79c-5,1.3-4.06,1.37-4.59.29C1004,166.5,1003.07,166.46,1003.87,168.79Z"/><path d="M365.27,769.09c1-.93,2.05-1.89,3.14-2.76a3.83,3.83,0,0,1,1.08.74C366.63,771.31,367.24,770.72,365.27,769.09Z"/><path d="M693.87,720.88c3.76,1.49,3.51.32,1.69,4.13C692.07,723.45,692.84,724.32,693.87,720.88Z"/><path d="M678.19,729.18c.66-1.11,1.29-2.24,2-3.3a4.56,4.56,0,0,1,1.34.42C680.08,730.84,680.47,730.15,678.19,729.18Z"/><path d="M276.35,273.69c.45-.54.81-1.41,1.36-1.55a8,8,0,0,1,5,.19C275.93,275.21,277.18,275.12,276.35,273.69Z"/><path d="M544.75,151.59c-1.12-.61-2.27-1.2-3.34-1.88a4.72,4.72,0,0,1,.61-1.18C546.68,150.09,546,149.73,544.75,151.59Z"/><path d="M668.31,112.91c2.21-1.49,1.37-1.93,3.94,1.31C670.36,115.93,671.24,116.11,668.31,112.91Z"/><path d="M782,708.36c-4.08,2.63-3.19,2.48-4.22,1.08C781.79,706.86,780.9,706.89,782,708.36Z"/><path d="M643.47,112.48c.08-1.37.14-2.54.23-4.13C646,110.41,646,110.41,643.47,112.48Z"/><path d="M510,133.08c-2.77,2.73-1.47,2.77-5,1.2C507,131.54,505.69,131.81,510,133.08Z"/><path d="M554.62,251.91c1.65,1.57,1.48.38,1,4.21C551.4,254.55,552.87,253.84,554.62,251.91Z"/><path d="M710.49,299.52c.52,1.2,1,2.39,1.57,3.58a7.06,7.06,0,0,1-1.36.49C708,299.61,708.49,300.26,710.49,299.52Z"/><path d="M865.94,11.15c-2.84,3.33-1.46,3.17-5.18,2C862.54,10.27,861.21,10.8,865.94,11.15Z"/><path d="M276.58,421.61c-3.47,2.14-2.29,1.87-4.53.77C275.12,419.28,274.06,419.64,276.58,421.61Z"/><path d="M721.3,211l8.45-3.09C725.43,214.6,721.68,210.19,721.3,211Z"/><path d="M964.92,250.78c1.23,1.74,4.82,3,1.1,6C962,254.13,965.61,251,964.92,250.78Z"/><path d="M419.44,89.75c-3.46,2-2.28,2.34-5-.12C416.85,87.58,415.57,87.44,419.44,89.75Z"/><path d="M631.21,25.71l-3.39.07a13.91,13.91,0,0,1,.1-1.4C632,24.12,631.28,24.23,631.21,25.71Z"/><path d="M463.77,69.18c-1.75,2.37-.73,2.34-3.76.65C461.73,67.87,460.76,68,463.77,69.18Z"/><path d="M360.06,89.49c-3.11,3-1.66,3.09-5.52,1C357.08,88.06,355.65,88.34,360.06,89.49Z"/><path d="M262.77,111.17c2.91,3.49,2.61,2.17.68,4.92C260.43,113.65,261,114.79,262.77,111.17Z"/><path d="M886.46,300.62c-4.6-3.25-3.92-1.88-2.94-5.23C885.49,295.27,884.82,294.4,886.46,300.62Z"/><path d="M872.72,304.13c-1.26-.76-2.45-1.09-2.58-1.66a2.48,2.48,0,0,1,1.06-2.22,2.63,2.63,0,0,1,2.43.76C873.92,301.6,873.21,302.64,872.72,304.13Z"/><path d="M851.56,329.38c4.39-1.15,3.56-1.22,4,.06C851.4,331,852.24,331.13,851.56,329.38Z"/><path d="M544.68,417c-.8-.55-1.75-.89-1.76-1.29a2.25,2.25,0,0,1,1-1.78,2,2,0,0,1,1.81.83C545.91,415.23,545.21,416,544.68,417Z"/><path d="M781.24,353.43A24.53,24.53,0,0,1,778.1,356c-.21.13-1.6-1-1.55-1.06C778.94,351.23,778.67,352.29,781.24,353.43Z"/><path d="M916.88,320.64c.43,5.38.89,4.42-1.68,4.72C914.58,319.78,914.11,320.73,916.88,320.64Z"/><path d="M744,370.65l-2.4-1.17a16.39,16.39,0,0,1,1.6-2.28c.13-.15,1.33.2,1.32.32A24.29,24.29,0,0,1,744,370.65Z"/><path d="M348.72,77.64c-4.52-.57-5-2.25-4.37-4.58C346.77,72.08,345.78,71.21,348.72,77.64Z"/><path d="M1072.65,326.62c-4.73-3.16-4.19-2.3-3.4-3.84,4.31,1.23,3,.61,4.42,3.08Z"/><path d="M509.58,235.43a10.69,10.69,0,0,1-2,2.21c-.19.11-3.14-.57-.47-3.17C507.25,234.3,508.34,234.94,509.58,235.43Z"/><path d="M715.29,229.55c-.46-2.26-.72-3.57-1.14-5.69C720,226,719.51,225.13,715.29,229.55Z"/><path d="M722,196.93c.61,2.65-.84,3.54-4.41,3.46C721,195.5,720,196.06,722,196.93Z"/><path d="M493.64,507.82c-3.74,3.62-2.77,3.32-4.43,1.84C493,506.12,492.08,506.41,493.64,507.82Z"/><path d="M137.87,609.81c-3.79-2.16-3.64-1-2-4.37C139.35,606.89,138.54,606,137.87,609.81Z"/><path d="M654.4,246.5c-2.93,3.21-1.65,3.26-4.95,1.45C651,245.78,649.63,246.09,654.4,246.5Z"/><path d="M628.25,191.06c5.17,1.78,2,4.75.3,4.07C625,193.68,629.38,190.13,628.25,191.06Z"/><path d="M199.38,309.43c-.42-5.64-.75-4.62,1.19-5C202,310,202.4,308.94,199.38,309.43Z"/><path d="M628.25,576.35c5.22-1.74,4.22-1.9,5-.08C627.77,578.55,628.79,578.64,628.25,576.35Z"/><path d="M553.89,648.8c-5.44,4.55-4.38,4.16-5.89,3.24C549.72,648.22,548.47,649.32,553.89,648.8Z"/><path d="M958.19,53.48c-.1-4.27-.57-3.6,1.39-3.64C959.39,54.17,959.74,53.43,958.19,53.48Z"/><path d="M693.43,122l-2.13,2.24c-1.48-1.36-2.95-1.27.29-3.68A11.35,11.35,0,0,1,693.43,122Z"/><path d="M761,252l5.82-2.57C765.79,252.66,765.79,252.66,761,252Z"/><path d="M785.85,84c.16,1,.34,2.08.43,3.12a4.17,4.17,0,0,1-1.21.27C783.66,84,783.89,84.55,785.85,84Z"/><path d="M525.71,146.53l2.22,1.41a9.6,9.6,0,0,1-1.86,2.09c-.26.18-1.76-.62-1.72-.81A12.78,12.78,0,0,1,525.71,146.53Z"/><path d="M602.72,300.6c-3.08,2.39-2.35,2.12-3.47.93C602.38,299.21,601.63,299.33,602.72,300.6Z"/><path d="M217.77,414.52c-2.42,1.83-1.29,2.09-4.28-.14C216.43,412.89,215.33,413.09,217.77,414.52Z"/><path d="M176.67,671.09a10,10,0,0,1,2.17,1.78c.14.2-.9,1.53-1.17,1.48a9.64,9.64,0,0,1-2.44-1.14Z"/><path d="M559.9,496.47c.81,1.74,2.15,3.55-1.29,5.07C556.67,498.47,560.57,496.73,559.9,496.47Z"/><path d="M536.18,584c-3.48,2.48-2.26,2.38-4.75.29C534.75,582.08,533.49,582.4,536.18,584Z"/><path d="M496.54,598.51c-.66.84-1,1.76-1.56,1.86a2.07,2.07,0,0,1-1.76-1c-.14-.38.55-1.43,1.08-1.61S495.58,598.17,496.54,598.51Z"/><path d="M927.52,299c2.46,3,2.14,1.82,1.43,4.44C926.32,302.46,926.89,303.5,927.52,299Z"/><path d="M1021.28,278.12c-1.64-.51-1.49.37-.89-3.57C1022.13,274.78,1021.87,274.05,1021.28,278.12Z"/><path d="M319.8,671.06l2.08,1.19c-.39.53-.74,1.44-1.18,1.5a2.21,2.21,0,0,1-1.78-.87C318.73,672.6,319.41,671.82,319.8,671.06Z"/><path d="M981.51,110.51c-1.88,2.35-1,2.16-3.53,1.25C979.41,109.3,978.65,109.85,981.51,110.51Z"/><path d="M942.07,289.33c.43-3.6,0-2.3,2.5-4.71.27,4.06.59,2.8-1.18,4.95Z"/><path d="M252.94,103.6l2.27.78a8.22,8.22,0,0,1-1.46,2c-.19.15-1.42-.42-1.63-.89S252.59,104.33,252.94,103.6Z"/><path d="M637,606.66c-.09,3.81.42,3.2-2,3.1C635.86,606,635.31,606.55,637,606.66Z"/><path d="M193.78,600.82c5-1.05,4.1-1.19,4.41.33C193.33,602.43,194.18,602.7,193.78,600.82Z"/><path d="M543.28,512c1.33,1.09,2.13,2.3,0,3.37-.58.29-1.6-.23-2.42-.39C543.88,511.61,543.55,512.08,543.28,512Z"/><path d="M562.83,476.21c-1.1,2.51-.14,2.35-3.37,1.43C560.77,475.43,559.89,475.82,562.83,476.21Z"/><path d="M180,483.23c-2.83-1-2.71-.22-1-3C181.55,481.57,181,480.91,180,483.23Z"/><path d="M354,722.17c-3.43-2-3-1.07-1.39-3.85C355.78,720.3,355.17,719.36,354,722.17Z"/><path d="M679,633.08a24.61,24.61,0,0,1,1.74-2.22,3,3,0,0,1,1.19.58C680.85,634.44,680.92,633.89,679,633.08Z"/><path d="M939.69,575c-1.43,3.94-.79,3.44-2.48,3.05C938.27,574.24,937.68,574.84,939.69,575Z"/><path d="M634.63,258.31c-2.87,2.32-2,2.11-3.63.49C633.85,256.53,633.05,256.55,634.63,258.31Z"/><path d="M696.07,650.89c-3.5-2.28-2.79-1.45-2.3-3.19C697.48,650.25,697.19,649.51,696.07,650.89Z"/><path d="M905,607.77l2.06,2.47C904.06,609.85,904.72,610.37,905,607.77Z"/><path d="M185.12,154c-2.52-2-2.58-1-.42-3.82C186.57,151.42,186.66,150.35,185.12,154Z"/><path d="M318.12,58.31c.69.72,1.14,1.2,1.6,1.67a7.28,7.28,0,0,1-1.79,1.09c-.3.09-1.17-.58-1.13-.7A13.49,13.49,0,0,1,318.12,58.31Z"/><path d="M837.38,204.25c1-.61,1.88-1.23,2.87-1.76a3.62,3.62,0,0,1,.85,1C838.19,206.41,838.65,205.89,837.38,204.25Z"/><path d="M962.11,602.51s-.34,1.2-.46,1.19c-1.29-.05-2.56-.24-3.84-.39C958.73,601.06,958,600.94,962.11,602.51Z"/><path d="M934,611.17c3.27,2,3.19,1.2.87,3.57C932.12,612.44,932.53,613.37,934,611.17Z"/><path d="M561,64.34c2.35,1.91,2.14,1.06.86,3.24C559.46,66,560,66.76,561,64.34Z"/><path d="M112.53,655.92c-2.3-1.35-2.31-.51-1.09-3C113.76,654,113.45,653.17,112.53,655.92Z"/><path d="M799.6,202.31c1.26,3.58,1.35,2.88-.11,3.4C798.13,202.21,797.93,202.9,799.6,202.31Z"/><path d="M392.83,761.73c4.53-1.63,3.61-1.75,4.45-.12C392.87,763.82,393.8,763.9,392.83,761.73Z"/><path d="M638.38,333.91l-1.68-1.43a11.24,11.24,0,0,1,2.11-1.63c.18-.09,1.33.92,1.27,1.37S639.12,333.22,638.38,333.91Z"/><path d="M780.76,665.85c3.75-2.68,3-2.67,3.78-1C780.22,665.88,780.57,665.71,780.76,665.85Z"/><path d="M353.43,326.2c-.95-2.23-1.69-1.43,2.81-3.64C357.45,324.87,358,324,353.43,326.2Z"/><path d="M249.27,165.47a21.4,21.4,0,0,1,2.94,2.17c.13.13-1,1.63-1.08,1.59C247,167.81,248.22,167.62,249.27,165.47Z"/><path d="M691.86,708.69c-.64.93-1,1.72-1.56,2.11-.25.15-1.59-.52-1.61-.89a2.42,2.42,0,0,1,1-1.89C690,707.8,690.94,708.38,691.86,708.69Z"/><path d="M323.61,808.6h3.71c-.11.46-.18,1.29-.31,1.31C322.84,810.34,323.55,810,323.61,808.6Z"/><path d="M362.19,393.75c2.71,1.29,2.59.25,1.42,3.59C361.1,395.59,361.68,396.39,362.19,393.75Z"/><path d="M220.6,428.93c.86,1,1.92,1.8,1.76,2.19a3.37,3.37,0,0,1-2.05,1.81c-.56.12-1.93-.93-1.87-1.39C218.52,430.82,219.51,430.16,220.6,428.93Z"/><path d="M845.58,19.42c-2.44,1.79-1.63,1.6-3.08-.07C845.05,17.84,844.2,18,845.58,19.42Z"/><path d="M342,809.66c1.94,1.49,2.79,1.93,3.24,2.61.14.21-.92,1.57-1.21,1.52C340.48,813.15,341.72,811.54,342,809.66Z"/><path d="M261.06,417.44l4.55-.72c-.19,1.51-.33,2.65-.65,5.24C260.72,416.78,261.2,417.21,261.06,417.44Z"/><path d="M751.8,707.43c-.59,2.34.11,2-3.38,1.24C749,707.05,748.08,707.33,751.8,707.43Z"/><path d="M492,120.63c2.15,1.3,2.23.46.83,3.05C489.91,122.28,490.21,123,492,120.63Z"/><path d="M198.9,424.11c-2,2.57-.79,2.43-4.38,1.47C195.62,423.45,194.34,423.64,198.9,424.11Z"/><path d="M250,503.06c2.5,4,2.25,2.58.57,5.42C247.28,506.6,247.75,507.94,250,503.06Z"/><path d="M362.88,618.55c-2.1,1.86-1.37,1.54-2.79.71C361.68,617.18,361,617.45,362.88,618.55Z"/></g></mask></defs><title>original-2</title><g class="cls-3"><path class="cls-4" d="M906.07,333.72C808.55,178.49,617.93,97.05,431.52,146.15S119.36,360,111,543.17L26.46,565.43,91.88,813.77l84.51-22.26c97.52,155.23,288.14,236.67,474.55,187.57s312.16-213.89,320.55-397L1056,559.8,990.58,311.46Zm-469-166.58c174.7-46,353.2,28.76,446.87,172.41l-25.4,6.7c-89.12-130.43-253.87-197.53-415.13-155s-271.57,182-284.87,339.44l-25.4,6.7C143.86,366.18,262.35,213.16,437.05,167.14ZM853,347.7,662.74,397.82A204.69,204.69,0,0,0,354.3,479.07L164.06,529.19c13.84-154.4,122.38-291,280.71-332.75S764.87,220.16,853,347.7ZM645.41,958.09c-174.69,46-353.2-28.76-446.87-172.41l25.4-6.69c89.12,130.42,253.87,197.53,415.13,155S910.64,752,923.94,594.59l25.4-6.69C938.6,759.05,820.11,912.07,645.41,958.09ZM229.48,777.53l190.24-50.12a204.69,204.69,0,0,0,308.44-81.25L918.4,596.05C904.56,750.44,796,887.08,637.69,928.79S317.59,905.07,229.48,777.53Zm797.94-231.9L109.77,787.36,55,579.6,972.69,337.87Z"/><path class="cls-4" d="M300.49,592.49l-8.3,2.19,6.33,24,4.18-1.11a34.26,34.26,0,0,0,6.21-2.22,21.17,21.17,0,0,0,4.9-3.27,9.93,9.93,0,0,0,3-4.83,11.89,11.89,0,0,0-.11-6.28,11.74,11.74,0,0,0-5.75-7.77Q306.6,590.88,300.49,592.49Z"/><path class="cls-4" d="M200,631.51a22,22,0,0,0-2.92-4.82,20.49,20.49,0,0,0-3.71-3.64,10.4,10.4,0,0,0-4.65-1.9,15,15,0,0,0-10.32,2.47,10.2,10.2,0,0,0-3,3.24,17.86,17.86,0,0,0-1.67,4.12,17.36,17.36,0,0,0-.6,4.7c0,1.64.1,3.33.24,5.08a35.17,35.17,0,0,0,.8,5.15c.4,1.68.77,3.33,1.13,5a44,44,0,0,0,1.22,4.52l.63,2.4c.13.46.31,1.15.55,2.06.4,1.36.78,2.81,1.14,4.33a48.19,48.19,0,0,0,1.34,4.67q.81,2.4,1.65,4.74a37.62,37.62,0,0,0,2,4.55,43.38,43.38,0,0,0,2.36,4.08,18.52,18.52,0,0,0,2.79,3.34,14.86,14.86,0,0,0,3.3,2.36,10.44,10.44,0,0,0,3.92,1.09,13.93,13.93,0,0,0,9.09-2.57,10.69,10.69,0,0,0,2.95-3.43,16.73,16.73,0,0,0,1.6-4.38,22.1,22.1,0,0,0,.49-5.09c0-1.77-.14-3.59-.33-5.45a49.41,49.41,0,0,0-.91-5.53q-.61-2.73-1.23-5.36c-.41-1.75-.85-3.4-1.3-4.94l-.54-2.06c-.13-.5-.35-1.31-.64-2.4-.48-1.64-.93-3.38-1.37-5.22a47.12,47.12,0,0,0-1.73-5.6Q201.21,634.14,200,631.51Z"/><polygon class="cls-4" points="785.77 501.14 801.49 497 784.27 464.24 785.77 501.14"/><path class="cls-4" d="M72.36,589.26l47.73,181.17L1010.1,536,962.37,354.8Zm176.15,82.18a55.56,55.56,0,0,1-14.84,26,60.5,60.5,0,0,1-57.25,15.08,55.67,55.67,0,0,1-25.73-15.32,61.05,61.05,0,0,1-15.1-27.37q-4.67-17.7-.78-32.93a51.62,51.62,0,0,1,14.73-25.43q10.86-10.2,27.2-14.5,16.06-4.23,30.54-.71a51.5,51.5,0,0,1,25.35,14.87q10.88,11.34,15.54,29.05A60.93,60.93,0,0,1,248.51,671.44Zm131.3-6.62-18,4.74q-2.68.71-4.23,1.08c-1,.25-2.42.55-4.17.91a32,32,0,0,1-4.27.65c-1.1.07-2.43.09-4,.06a13.53,13.53,0,0,1-3.89-.56,21.66,21.66,0,0,1-3.39-1.45,10.15,10.15,0,0,1-3.11-2.45,20.49,20.49,0,0,1-2.45-3.72,23.49,23.49,0,0,1-1.91-5l-3.53-13.39a43.64,43.64,0,0,0-2.23-6.64,17.36,17.36,0,0,0-3.07-4.69,8.1,8.1,0,0,0-4.82-2.59,17.06,17.06,0,0,0-7,.61L303,634.11l6.06,23,8.31-2.19,6.49,24.64q-18.12,4.77-55.59,14.72l-6.51-24.72,10.57-2.78-16.47-62.54-10.64,2.81-6.38-24.23,69.67-18.36a63.09,63.09,0,0,1,15.37-2.28,33.76,33.76,0,0,1,12.78,2.25,23.23,23.23,0,0,1,10,7.71A38.82,38.82,0,0,1,353,586q2.63,10-2.12,18T335,617.4q10.85-.36,16.34,2.67a14.4,14.4,0,0,1,7.16,9.35l1.68,6.38a13.43,13.43,0,0,0,1.14,3.08,5.11,5.11,0,0,0,2,1.86,6.75,6.75,0,0,0,3.79.61,34.59,34.59,0,0,0,6.26-1.17ZM423,560.23l-10.1,2.66,16.48,62.54,9.68-2.55,6.49,24.64-59.17,15.59-6.49-24.65,10.09-2.65-16.48-62.54-9.81,2.59-6.39-24.23L416.56,536ZM559.1,617.59l-18.94,5-4.71-6.18q-7.61,11.55-24.77,16.07A73.7,73.7,0,0,1,491.24,635a58.46,58.46,0,0,1-18-2.89A53.87,53.87,0,0,1,457.66,624a51.41,51.41,0,0,1-12.36-13.59,66.2,66.2,0,0,1-8.09-18.87,73.44,73.44,0,0,1-2.42-23.8,59.59,59.59,0,0,1,5.47-21.48,48.64,48.64,0,0,1,14-17.36A60.24,60.24,0,0,1,476.78,518q14.07-3.71,24.51.22l1.9-5.05,21.62-5.69L537.07,554l-19.77,5.21q-1.59-4.07-3-6.84a36.84,36.84,0,0,0-3.65-5.65,16.81,16.81,0,0,0-4.7-4.3,15.39,15.39,0,0,0-6.07-1.86,21.64,21.64,0,0,0-7.92.73,22.68,22.68,0,0,0-8.1,3.79,15.6,15.6,0,0,0-4.88,6,31.37,31.37,0,0,0-2.24,7.23,32,32,0,0,0-.27,8.29q.39,4.56,1.07,8.24t1.81,8q8,30.27,29.6,24.57a15.28,15.28,0,0,0,8.36-5.32,9.67,9.67,0,0,0,1.82-9,22.15,22.15,0,0,0-2-5.41l-11,2.82-5.5-20.87,42.9-11.3Zm47.39-105.71-10.09,2.66,16.47,62.54,9.68-2.55L629,599.17l-59.17,15.59-6.49-24.65,10.09-2.66L557,524.92l-9.81,2.59-6.38-24.23,59.31-15.63Zm128.43-33.83q-5.83,1.54-7.64,4.88c-1.2,2.22-1.35,5-.46,8.41L747,568.09l-41.6,11-48.89-53.78,7.25,27.52q1.49,5.64,4.59,7.24t8.93.07l6.49,24.64-43.72,11.52-6.5-24.64a16.81,16.81,0,0,0,5.13-2.16,9.84,9.84,0,0,0,2.82-2.65,6.72,6.72,0,0,0,.93-3.44,19.5,19.5,0,0,0-.19-3.66c-.18-1-.49-2.41-.95-4.15L628.27,506l-10.77,2.84-6.35-24.1,50.45-13.29,51.7,58-8.48-32.2q-.44-1.63-.69-2.46a21.3,21.3,0,0,0-.89-2.29,5.34,5.34,0,0,0-1.56-2.16,12.86,12.86,0,0,0-2.29-1.31,6.88,6.88,0,0,0-3.46-.44,25.25,25.25,0,0,0-4.74.95l-6.39-24.23,43.75-11.45Zm135,57.67-56.7,14.94L806.64,526l8.24-2.17q-3-11.25-7.56-10l-18.88,5a1.58,1.58,0,0,0-1.18,1.08,3.17,3.17,0,0,0-.16,1.62c.08.52.23,1.26.44,2.23a15.42,15.42,0,0,0,1.91,4.2c.94,1.51,1.88,2.14,2.85,1.89l5.76-1.52,6.49,24.65L758,565.2l-6.49-24.65a24.15,24.15,0,0,0,5.21-2,11.07,11.07,0,0,0,5.9-8.53,75.53,75.53,0,0,0,.28-9.54l-.47-49.72-14.56,3.83-6.38-24.22,68.23-18,42.34,75.17c.74,1.33,1.33,2.32,1.78,3a6.06,6.06,0,0,0,1.65,1.66,2.41,2.41,0,0,0,2,.38l5.9-1.55Zm92.26-24.3-87.39,23-6.56-24.63,9.81-2.58-16.47-62.54-10.09,2.66-6.36-24.16,59.58-15.7,6.37,24.16-10.58,2.79L917,497l13.11-3.45-.36-25.6,19.63-5.17Z"/><path class="cls-4" d="M250.62,437.73a15.87,15.87,0,0,1-.07,2.65c-.08,1.22-.15,2.14-.21,2.77a33.53,33.53,0,0,0-.34,4.77l-8.57-3.84c0-2,0-4.49-.27-7.5a21.75,21.75,0,0,0-1.34-6.72l4-9,60.39,27-5.16,11.56Z"/><path class="cls-4" d="M307.36,432.67q-6.78,1.11-14.21-3.5L268,413.52q-7.71-4.8-9.78-11.28t2.62-14q4.65-7.49,11.39-8.5t14.43,3.78l25.17,15.65q7.37,4.58,9.39,11.22t-2.46,13.86Q314.16,431.55,307.36,432.67Zm-2.51-22.78L280.08,394.5a17.22,17.22,0,0,0-5.7-2.44,3.72,3.72,0,0,0-4.12,2c-1.1,1.75-1.12,3.31-.08,4.66a18.19,18.19,0,0,0,4.77,4l24.76,15.38q7,4.37,9.6.2C311,415.61,309.51,412.79,304.85,409.89Z"/><path class="cls-4" d="M330.9,397.24c-4.6,0-9.08-1.88-13.49-5.7L295,372.11q-6.84-5.94-7.87-12.66t4.8-13.45c3.86-4.46,8.06-6.65,12.59-6.61s9.09,2.05,13.65,6l22.4,19.43q6.54,5.67,7.5,12.54t-4.62,13.31Q337.78,397.22,330.9,397.24ZM332,374.35l-22-19.11a17.52,17.52,0,0,0-5.23-3.31,3.74,3.74,0,0,0-4.39,1.33q-2,2.36-.81,4.6a17.72,17.72,0,0,0,4.08,4.73l22,19.1q6.22,5.42,9.43,1.72T332,374.35Z"/><path class="cls-4" d="M339.14,343.07q-5.33-1.36-10.43-8.35l-2-2.7c-3.49-4.74-5.09-8.84-4.83-12.31s2.56-6.79,6.9-10,8.28-4.45,11.66-3.73,6.77,3.45,10.22,8.15l2.23,3q5.12,7,4.75,12.41c-.25,3.62-2.51,7-6.82,10.17S342.67,344,339.14,343.07Zm8.64-13.89a21.52,21.52,0,0,0-3.53-6.28l-1.69-2.29a34.57,34.57,0,0,0-3.26-3.95,4.6,4.6,0,0,0-2.62-1.43,5.49,5.49,0,0,0-4.94,3.63,4.71,4.71,0,0,0,.58,2.91,34.4,34.4,0,0,0,2.8,4.29l1.73,2.38a21,21,0,0,0,4.9,5.22q2,1.2,4.26-.5C347.58,332,348.18,330.68,347.78,329.18Zm3.56-35.79,6-4.41,23.15,65.07-6,4.4Zm40,47.67q-5.28-1.33-10.41-8.32l-2-2.76c-3.44-4.7-5-8.78-4.79-12.28s2.53-6.82,6.87-10,8.21-4.4,11.6-3.65,6.81,3.49,10.27,8.17l2.17,3q5.12,7,4.75,12.41T403,337.7C398.77,340.83,394.88,341.94,391.36,341.06ZM400,327.22a22.06,22.06,0,0,0-3.57-6.24l-1.74-2.37a38.68,38.68,0,0,0-3.24-4,4.43,4.43,0,0,0-2.55-1.43,4.5,4.5,0,0,0-3.07,1.08,4.17,4.17,0,0,0-1.9,2.58,4.69,4.69,0,0,0,.61,2.9,33.41,33.41,0,0,0,2.78,4.28l1.74,2.37a21.5,21.5,0,0,0,4.91,5.26c1.32.82,2.75.66,4.28-.46S400.41,328.71,400,327.22Z"/><path class="cls-4" d="M439.89,314.26c-4-2.51-7.19-7.13-9.52-13.89l-8-23.33q-3.47-10.11-1-16.66t12.47-10c6.59-2.26,11.91-2.18,15.94.28s7.2,7,9.49,13.7l8,23.41c2.29,6.7,2.62,12.28.94,16.72s-5.79,7.83-12.38,10.08S443.92,316.76,439.89,314.26Zm16.49-12.48a14.44,14.44,0,0,0-1-6.44l-10.14-29.59a13.78,13.78,0,0,0-3.18-5.6q-1.84-1.75-5.1-.63t-3.64,3.61a14,14,0,0,0,.94,6.38l10.15,29.59a14.66,14.66,0,0,0,3.18,5.73c1.21,1.2,2.93,1.41,5.15.65S456.13,303.51,456.38,301.78Z"/><path class="cls-4" d="M469.61,240.63l16.93-2.79q10.54-1.72,16.51,1.26t7.51,12.51a25.1,25.1,0,0,1-.09,10.56,11.85,11.85,0,0,1-5.31,7l14.26,30.35-13.62,2.24-12.27-28.35-4.85.78,4.87,29.59-13.22,2.17Zm21.73,25c3.12-.51,5.19-1.64,6.19-3.37s1.26-4.25.71-7.53-1.48-5.49-2.85-6.82-3.54-1.73-6.49-1.24l-4.6.75,3.1,18.86Z"/><path class="cls-4" d="M523.16,233.67l13.39-.47,2.34,66.11-13.39.47Z"/><path class="cls-4" d="M550.64,294.17q-3.57-6.27-2.56-17.25l2-22.05q1-11.22,5.93-16.63c3.25-3.61,8.42-5.09,15.46-4.44q10.17.93,14,6.29t3,14.71l-.35,3.83-13-1.2.44-4.64a16.92,16.92,0,0,0-.4-6.8c-.56-1.5-2-2.37-4.4-2.59s-4.09.45-4.94,2a18.62,18.62,0,0,0-1.72,7l-2.69,29.28a15.74,15.74,0,0,0,.64,7.24c.72,1.72,2.27,2.7,4.66,2.92a5.13,5.13,0,0,0,5.17-2.18,16.09,16.09,0,0,0,2.09-7.23l.64-7-6.42-.59.75-8.13,18.54,1.7-3.11,33.84-8.78-.81-.37-5.94q-3.63,6.56-11.44,5.84C557.41,300.74,553,298.35,550.64,294.17Z"/><path class="cls-4" d="M606,239.58l13.07,2.92-14.35,64.58-13.08-2.92Z"/><path class="cls-4" d="M634.54,246.25l8.85,3.14,2.36,37.33,11.5-32.41,10.54,3.74-22.13,62.36-8.54-3.05L635.51,278l-12.24,34.49-10.86-3.86Z"/><path class="cls-4" d="M692.84,270.18,706,277.35l-20.6,64.14-10.89-6,4.83-13.92-9.16-5-9.2,11.54-11.11-6.07Zm-10.69,43.49,9.28-25.27L675.2,309.87Z"/><path class="cls-4" d="M728.58,291.47l10.72,8-34.17,45.64,12.49,9.34-5.48,7.33-23.2-17.38Z"/><path class="cls-4" d="M378.16,771.49a19.1,19.1,0,0,1-2.56-.71L373,769.9a31.77,31.77,0,0,0-4.53-1.49l5.81-7.39a67.36,67.36,0,0,0,7.34,1.57,21.78,21.78,0,0,0,6.85.36l7.76,6.12-40.94,52-9.94-7.84Z"/><path class="cls-4" d="M375.43,830.31q-1.29-6.76,3.12-14.31l15-25.59q4.59-7.83,11-10.08c4.29-1.5,9-.75,14.11,2.25s8,6.68,8.81,11.15-.35,9.32-3.4,14.54l-15,25.59q-4.36,7.47-11,9.68t-13.91-2.1C379.21,838.52,376.3,834.82,375.43,830.31Zm22.7-3.14L412.85,802a17.43,17.43,0,0,0,2.28-5.77,3.72,3.72,0,0,0-2.11-4.07c-1.79-1-3.34-1-4.67.06a18,18,0,0,0-3.89,4.86l-14.73,25.17q-4.16,7.13.07,9.6T398.13,827.17Z"/><path class="cls-4" d="M419.89,854.06q-2.38-6.46.77-14.62l10.64-27.67q3.26-8.46,9.24-11.72t14.29,0q8.22,3.15,10.47,9.58t-1,14.89l-10.65,27.67q-3.12,8.07-9.26,11.32c-4.08,2.16-8.78,2.21-14.06.17S421.47,858.38,419.89,854.06Zm21.89-6.76,10.48-27.21a17.32,17.32,0,0,0,1.31-6.05,3.73,3.73,0,0,0-2.74-3.68q-2.9-1.11-4.59.81a17.55,17.55,0,0,0-3.05,5.43l-10.48,27.21c-2,5.14-1.44,8.29,1.62,9.46S439.81,852.44,441.78,847.3Z"/><path class="cls-4" d="M471.48,842.81c-1.89-3.12-2.44-7.55-1.63-13.26l.46-3.32q1.23-8.75,5.14-12.19c2.6-2.29,6.57-3.07,11.91-2.31s9.05,2.57,10.95,5.45,2.45,7.19,1.64,13l-.53,3.73q-1.2,8.58-5.25,12.2c-2.72,2.44-6.7,3.27-12,2.53S473.38,845.94,471.48,842.81Zm15.9-3.91a21.63,21.63,0,0,0,1.84-7l.4-2.83a35.12,35.12,0,0,0,.43-5.1,4.7,4.7,0,0,0-.88-2.83,4.32,4.32,0,0,0-2.94-1.37,4.14,4.14,0,0,0-3.13.52,4.53,4.53,0,0,0-1.62,2.48,33.11,33.11,0,0,0-1,5l-.4,2.91a20.71,20.71,0,0,0-.16,7.15c.38,1.48,1.5,2.36,3.39,2.62S486.61,840.25,487.38,838.9Zm27.53-23.14,7.37,1-28.85,62.74-7.37-1Zm-4.63,62.07c-1.9-3.1-2.46-7.51-1.64-13.22l.47-3.4q1.22-8.65,5.13-12.15c2.61-2.33,6.59-3.11,11.91-2.37s9,2.58,10.86,5.49,2.45,7.24,1.64,13l-.51,3.64q-1.2,8.58-5.25,12.21T521,883.58C515.74,882.84,512.19,880.92,510.28,877.83ZM526.12,874a22.13,22.13,0,0,0,1.81-7l.41-2.91a39.62,39.62,0,0,0,.47-5.13,3.78,3.78,0,0,0-3.79-4.16,4.25,4.25,0,0,0-3.16.5,4.86,4.86,0,0,0-1.59,2.51,34.18,34.18,0,0,0-1,5l-.41,2.92a21.47,21.47,0,0,0-.15,7.2c.37,1.5,1.5,2.39,3.38,2.65S525.39,875.31,526.12,874Z"/><path class="cls-4" d="M580.39,876.89q-5.35-4.7-7.17-15.22L569,837.36q-1.83-10.54,1.69-16.62t13.89-7.86q10.3-1.78,15.7,2.81t7.19,15l4.2,24.39q1.8,10.46-1.72,16.67t-13.85,8Q585.77,881.55,580.39,876.89Zm18.27-9.71a14.37,14.37,0,0,0,.08-6.51l-5.32-30.84a13.59,13.59,0,0,0-2.24-6q-1.54-2-4.93-1.43c-2.25.38-3.64,1.39-4.16,3a13.69,13.69,0,0,0-.1,6.43l5.31,30.84a14.69,14.69,0,0,0,2.23,6.16q1.51,2.06,5,1.46C596.75,869.87,598.14,868.85,598.66,867.18Z"/><path class="cls-4" d="M608.56,809.12l16.17-5.75c6.71-2.38,12.21-2.94,16.46-1.68s7.48,4.91,9.62,11a25.54,25.54,0,0,1,1.8,10.41,12,12,0,0,1-4,7.78L668,858.19l-13,4.62-17.11-25.73-4.62,1.65L643.34,867l-12.63,4.48Zm25.83,20.73c3-1.06,4.8-2.54,5.49-4.43s.48-4.4-.64-7.52-2.44-5.15-4-6.21-3.8-1.08-6.61-.06l-4.39,1.55,6.39,18Z"/><path class="cls-4" d="M650,793.1,661.91,787,692,845.93,680.05,852Z"/><path class="cls-4" d="M705.3,832.92q-6.75-2.55-13-11.64L679.78,803q-6.39-9.31-6.09-16.59t9.06-13.3q8.4-5.77,14.79-4.12t11.71,9.4l2.17,3.16L700.66,789,698,785.16a16.59,16.59,0,0,0-4.66-5q-2.07-1.21-5,.83c-2,1.38-2.87,3-2.53,4.69a18.51,18.51,0,0,0,3.15,6.46l16.63,24.25a16,16,0,0,0,5.13,5.15c1.67.88,3.48.63,5.45-.73a5.12,5.12,0,0,0,2.57-5,15.55,15.55,0,0,0-3-6.9l-4-5.79-5.31,3.65-4.63-6.74,15.35-10.53,19.24,28-7.28,5-4.06-4.34q1.38,7.37-5.08,11.81C714.7,833.63,709.79,834.61,705.3,832.92Z"/><path class="cls-4" d="M703.21,758.65l10-8.94L757.34,799l-10,8.93Z"/><path class="cls-4" d="M718.58,745.2l6.14-7.11,35.62,11.37-26-22.49,7.32-8.46,50,43.28-5.94,6.85-37.28-12.81,27.68,23.94-7.54,8.7Z"/><path class="cls-4" d="M750.05,705.65l7.82-12.73,63,23.76-6.49,10.58-13.67-5.52-5.47,8.91,11.05,9.77-6.62,10.78ZM793,718.49,768.19,708l20.63,17.28Z"/><path class="cls-4" d="M765.44,679.16l5.3-12.3,52.35,22.58,6.17-14.33,8.4,3.61-11.47,26.63Z"/></g></svg>